<svg xmlns="http://www.w3.org/2000/svg" xmlns:xlink="http://www.w3.org/1999/xlink" xmlns:lucid="lucid" width="1171.2" height="721.33"><g transform="translate(0 0)" lucid:page-tab-id="0_0"><path d="M850 120c16.57 0 30 13.43 30 30v520c0 16.57-13.43 30-30 30H210c-16.57 0-30-13.43-30-30V150c0-16.57 13.43-30 30-30z" fill="none"/><path d="M859.64 121.6l.18.04 3.42 1.52m6.48 4.35l2.5 2.33.3.4m4.3 6.54l.78 1.44.72 2.2m1.6 7.64L880 150v2.02m0 8.06v4.03m0 8.07v4.03m0 8.06v4.03m0 8.06v4.03m0 8.05v4.03m0 8.06v4.03m0 8.07v4.03m0 8.06v4.03m0 8.06v4.03m0 8.06v4.05m0 8.06v4.04m0 8.06v4.03m0 8.06v4.02m0 8.07v4.02m0 8.06v4.03m0 8.07v4.03m0 8.07v4.03m0 8.06v4.03m0 8.05v4.03m0 8.06v4.04m0 8.06v4.03m0 8.06v4.03m0 8.06v4.04m0 8.06v4.03m0 8.06v4.04m0 8.06v4.03m0 8.07v4.03m0 8.06v4.02m0 8.06v4.03m0 8.08v4.03m0 8.07v4.03m0 8.06V539m0 8.05v4.04m0 8.05v4.03m0 8.06v4.03m0 8.06v4.03m0 8.07v4.03m0 8.06v4.03m0 8.06v4.04m0 8.07v4.04m0 8.06v4.03m0 8.06v4.02m0 8.06V670l-.16 1.95m-1.44 7.7l-.04.17-1.52 3.42m-4.35 6.48l-2.33 2.5-.4.3m-6.54 4.3l-1.44.78-2.2.72m-7.64 1.6L850 700h-2m-8.06 0h-4.03m-8.04 0h-4.02m-8.05 0h-4.04m-8.05 0h-4m-8.06 0h-4.03m-8.04 0h-4.03m-8.05 0h-4.02m-8.05 0h-4.02m-8.05 0h-4.02m-8.04 0h-4.03m-8.05 0h-4.02m-8.05 0h-4.02m-8.05 0H691m-8.04 0h-4.03m-8.05 0h-4.02m-8.05 0h-4.02m-8.05 0h-4.03m-8.05 0h-4.02m-8.05 0h-4.03m-8.05 0h-4.02m-8.05 0h-4.03m-8.05 0h-4.02m-8.05 0h-4.03m-8.05 0h-4.02m-8.05 0h-4.03m-8.05 0h-4.02m-8.06 0h-4.02m-8.05 0h-4.03m-8.05 0h-4.02m-8.05 0h-4.03m-8.05 0h-4.02m-8.05 0h-4.03m-8.05 0h-4.02m-8.05 0h-4.03m-8.05 0h-4.02m-8.05 0h-4.03m-8.05 0h-4.03m-8.06 0h-4.02m-8.05 0h-4.03m-8.05 0h-4.03m-8.05 0h-4.03m-8.06 0h-4.02m-8.05 0h-4.03m-8.05 0h-4.03m-8.05 0h-4.03m-8.06 0h-4.02m-8.05 0h-4.03m-8.05 0h-4.04m-8.05 0h-4m-8.06 0h-4.03m-8.04 0h-4.02m-8.05 0h-4.04m-8.05 0h-2l-1.95-.16m-7.7-1.44l-.17-.04-3.42-1.52m-6.48-4.35l-2.5-2.33-.3-.4m-4.3-6.54l-.78-1.44-.72-2.2m-1.6-7.64L180 670v-2.02m0-8.06v-4.03m0-8.07v-4.03m0-8.06v-4.03m0-8.06v-4.03m0-8.05v-4.03m0-8.06v-4.03m0-8.07v-4.03m0-8.06v-4.03m0-8.06v-4.03m0-8.06v-4.05m0-8.06v-4.04m0-8.06v-4.03m0-8.06v-4.02m0-8.07v-4.02m0-8.06v-4.03m0-8.07v-4.03m0-8.07v-4.03m0-8.06v-4.03m0-8.05v-4.03m0-8.06v-4.04m0-8.06v-4.03m0-8.06v-4.03m0-8.06v-4.04m0-8.06v-4.03m0-8.06v-4.04m0-8.06v-4.03m0-8.07v-4.03m0-8.06v-4.02m0-8.06v-4.03m0-8.08v-4.03m0-8.07v-4.03m0-8.06V281m0-8.05v-4.04m0-8.05v-4.03m0-8.06v-4.03m0-8.06v-4.03m0-8.07v-4.03m0-8.06v-4.03m0-8.06v-4.04m0-8.07v-4.04m0-8.06v-4.03m0-8.06v-4.02m0-8.06V150l.16-1.95m1.44-7.7l.04-.17 1.52-3.42m4.35-6.48l2.33-2.5.4-.3m6.54-4.3l1.44-.78 2.2-.72m7.64-1.6L210 120h2m8.06 0h4.03m8.04 0h4.02m8.05 0h4.04m8.05 0h4m8.06 0h4.03m8.04 0h4.03m8.05 0h4.02m8.05 0h4.02m8.05 0h4.02m8.04 0h4.03m8.05 0h4.02m8.05 0h4.02m8.05 0H369m8.04 0h4.03m8.05 0h4.02m8.05 0h4.02m8.05 0h4.03m8.05 0h4.02m8.05 0h4.03m8.05 0h4.02m8.05 0h4.03m8.05 0h4.02m8.05 0h4.03m8.05 0h4.02m8.05 0h4.03m8.05 0h4.02m8.06 0h4.02m8.05 0h4.03m8.05 0h4.02m8.05 0h4.03m8.05 0h4.02m8.05 0h4.03m8.05 0h4.02m8.05 0h4.03m8.05 0h4.02m8.05 0h4.03m8.05 0h4.03m8.06 0h4.02m8.05 0h4.03m8.05 0h4.03m8.05 0h4.03m8.06 0h4.02m8.05 0h4.03m8.05 0h4.03m8.05 0h4.03m8.06 0h4.02m8.05 0h4.03m8.05 0h4.04m8.05 0h4m8.06 0h4.03m8.04 0h4.02m8.05 0h4.04m8.05 0h2l1.95.16" stroke="#000" stroke-width="2" fill="none"/><path d="M240 125c0-2.76 2.24-5 5-5h230c2.76 0 5 2.24 5 5v50c0 2.76-2.24 5-5 5H245c-2.76 0-5-2.24-5-5z" fill="none"/><use xlink:href="#a" transform="matrix(1,0,0,1,240,120) translate(26.75308641975309 36.22222222222222)"/><path d="M666 325c0-2.76 2.24-5 5-5h177c2.76 0 5 2.24 5 5v160c0 2.76-2.24 5-5 5H671c-2.76 0-5-2.24-5-5z" stroke="#0d1f54" stroke-width="2" fill="none"/><path d="M640 355c0-2.76 2.24-5 5-5h230c2.76 0 5 2.24 5 5v50c0 2.76-2.24 5-5 5H645c-2.76 0-5-2.24-5-5z" fill="none"/><use xlink:href="#b" transform="matrix(1,0,0,1,640,350) translate(28.125 33.6)"/><path d="M200 215c0-2.76 2.24-5 5-5h150c2.76 0 5 2.24 5 5v130c0 2.76-2.24 5-5 5H205c-2.76 0-5-2.24-5-5z" stroke="#000" stroke-width="2" fill="#fff"/><use xlink:href="#c" transform="matrix(1,0,0,1,200,210) translate(35.55499999999999 75.65)"/><path d="M190 495c0-2.76 2.24-5 5-5h150c2.76 0 5 2.24 5 5v110c0 2.76-2.24 5-5 5H195c-2.76 0-5-2.24-5-5z" stroke="#000" stroke-width="2" fill="#fff"/><use xlink:href="#d" transform="matrix(1,0,0,1,190,490) translate(30.57999999999999 63.15)"/><path d="M230 360.5V444c0 2.76 2.24 5 5 5h30c2.76 0 5 2.24 5 5v35" fill="none"/><path d="M231 360.5c0 .56-.45 1-1 1s-1-.44-1-1c0-.55.45-1 1-1s1 .45 1 1zm0 8.36c0 .55-.45 1-1 1s-1-.45-1-1c0-.56.45-1 1-1s1 .44 1 1zm0 8.35c0 .56-.45 1-1 1s-1-.44-1-1c0-.55.45-1 1-1s1 .45 1 1zm0 8.35c0 .56-.45 1-1 1s-1-.44-1-1c0-.55.45-1 1-1s1 .45 1 1zm0 8.35c0 .56-.45 1-1 1s-1-.44-1-1c0-.55.45-1 1-1s1 .45 1 1zm0 8.35c0 .56-.45 1-1 1s-1-.44-1-1c0-.55.45-1 1-1s1 .45 1 1zm0 8.35c0 .55-.45 1-1 1s-1-.45-1-1 .45-1 1-1 1 .45 1 1zm0 8.35c0 .55-.45 1-1 1s-1-.45-1-1 .45-1 1-1 1 .45 1 1zm0 8.35c0 .55-.45 1-1 1s-1-.45-1-1 .45-1 1-1 1 .45 1 1zm0 8.35c0 .55-.45 1-1 1s-1-.45-1-1 .45-1 1-1 1 .45 1 1zm0 8.35c0 .55-.45 1-1 1s-1-.45-1-1 .45-1 1-1 1 .45 1 1zm5 5c0 .55-.45 1-1 1s-1-.45-1-1 .45-1 1-1 1 .45 1 1zm7.5 0c0 .55-.45 1-1 1s-1-.45-1-1 .45-1 1-1 1 .45 1 1zm7.5 0c0 .55-.45 1-1 1s-1-.45-1-1 .45-1 1-1 1 .45 1 1zm7.5 0c0 .55-.45 1-1 1s-1-.45-1-1 .45-1 1-1 1 .45 1 1zm7.5 0c0 .55-.45 1-1 1s-1-.45-1-1 .45-1 1-1 1 .45 1 1zm5 5c0 .55-.45 1-1 1s-1-.45-1-1 .45-1 1-1 1 .45 1 1zm0 8.75c0 .55-.45 1-1 1s-1-.45-1-1 .45-1 1-1 1 .45 1 1zm0 8.75c0 .55-.45 1-1 1s-1-.45-1-1 .45-1 1-1 1 .45 1 1zm0 8.75c0 .55-.45 1-1 1s-1-.45-1-1 .45-1 1-1 1 .45 1 1z"/><path d="M231 360.5h-2v-.66l1 .16 1-.16zM271 490h-2v-1h2z"/><path d="M319.66 120V65c0-2.76-2.24-5-5-5H65c-2.76 0-5 2.24-5 5v210c0 2.76 2.24 5 5 5h117.38" stroke="#000" fill="none"/><path/><path d="M197.38 280l-14.26 4.64v-9.28z"/><path d="M199 280l-16.38 5.32v-10.64zm-15.38 3.95l12.14-3.95-12.14-3.95z"/><path d="M1000 345c0-2.76 2.24-5 5-5h150c2.76 0 5 2.24 5 5v110c0 2.76-2.24 5-5 5h-150c-2.76 0-5-2.24-5-5z" stroke="#000" stroke-width="2" fill="#fff"/><path d="M1092.3 429.6l.1.1c1.6 1.4 4.1 1.1 5.4-.7 5.9-7.9 9.1-17.6 9.1-27.6s-3.2-19.7-9.1-27.6c-1.3-1.8-3.8-2.1-5.4-.6h-.1c-1.4 1.2-1.6 3.4-.5 4.9 5 6.7 7.7 14.9 7.7 23.3 0 8.5-2.7 16.6-7.7 23.4-1.1 1.5-.9 3.6.5 4.8m-15-11.1c1.6 1.6 4.3 1.5 5.6-.3 3.6-4.8 5.5-10.7 5.5-16.8 0-6.1-1.9-12-5.5-16.8-1.3-1.8-4-1.9-5.6-.3-1.3 1.3-1.4 3.3-.3 4.8 2.6 3.5 4 7.8 4 12.3 0 4.5-1.4 8.8-4 12.3-1.1 1.5-1 3.5.3 4.8m32.6-56.6c-1.5 1.3-1.8 3.5-.7 5 7.5 10 11.5 22.2 11.5 34.7 0 12.4-3.9 24.5-11.3 34.4-1.1 1.5-.7 3.7.7 4.9h.1c1.6 1.3 4 1.1 5.2-.5 8.2-11.2 12.7-24.8 12.7-38.8 0-14.1-4.6-27.9-13-39.2-1.2-1.6-3.7-1.8-5.2-.5m-74.6 55.1h11.4l17.6 14.3c1.8 1.5 4.6-.1 4.6-2.5V374c0-2.4-2.8-3.3-4.6-1.8l-17.6 15.1h-11.4c-1.9 0-3.4.9-3.4 2.8v22.6c0 2 1.5 4.3 3.4 4.3" stroke="#f3f3f3" fill="#f3f3f3"/><path d="M854 405h126.76M854 405h-3" stroke="#000" stroke-width="2" fill="none"/><path d="M995.76 405l-14.26 4.64v-9.28z"/><path d="M999 405l-18.5 6v-12zm-16.5 3.26l10.03-3.26-10.03-3.26z"/><path d="M40 25c0-2.76 2.24-5 5-5h230c2.76 0 5 2.24 5 5v50c0 2.76-2.24 5-5 5H45c-2.76 0-5-2.24-5-5z" fill="none"/><use xlink:href="#e" transform="matrix(1,0,0,1,40,20) translate(79.07499999999999 33.6)"/><path d="M440 325c0-2.76 2.24-5 5-5h150c2.76 0 5 2.24 5 5v130c0 2.76-2.24 5-5 5H445c-2.76 0-5-2.24-5-5z" stroke="#000" stroke-width="2" fill="#fff"/><use xlink:href="#c" transform="matrix(1,0,0,1,440,320) translate(35.55499999999999 75.65)"/><path d="M361 280h34c2.76 0 5 2.24 5 5v100c0 2.76 2.24 5 5 5h17.38" stroke="#000" fill="none"/><path d="M361 280.5h-1v-1h1zM437.38 390l-14.26 4.64v-9.28z"/><path d="M439 390l-16.38 5.32v-10.64zm-15.38 3.95l12.14-3.95-12.14-3.95z"/><path d="M601 398.67h47.38" stroke="#000" fill="none"/><path d="M601 399.17h-1v-1h1z"/><path d="M663.38 398.67l-14.26 4.63v-9.27zM240 350c0 5.52-4.48 10-10 10s-10-4.48-10-10 4.48-10 10-10 10 4.48 10 10z" stroke="#000"/><path d="M300 245c0-2.76 2.24-5 5-5h230c2.76 0 5 2.24 5 5v50c0 2.76-2.24 5-5 5H305c-2.76 0-5-2.24-5-5z" fill="none"/><use xlink:href="#f" transform="matrix(1,0,0,1,300,240) translate(80.05 33.6)"/><defs><path fill="#c92d39" d="M205 0l-28-72H64L36 0H1l101-248h38L239 0h-34zm-38-99l-47-123c-12 45-31 82-46 123h93" id="g"/><path fill="#c92d39" d="M84 4C-5 8 30-112 23-190h32v120c0 31 7 50 39 49 72-2 45-101 50-169h31l1 190h-30c-1-10 1-25-2-33-11 22-28 36-60 37" id="h"/><path fill="#c92d39" d="M85-194c31 0 48 13 60 33l-1-100h32l1 261h-30c-2-10 0-23-3-31C134-8 116 4 85 4 32 4 16-35 15-94c0-66 23-100 70-100zm9 24c-40 0-46 34-46 75 0 40 6 74 45 74 42 0 51-32 51-76 0-42-9-74-50-73" id="i"/><path fill="#c92d39" d="M24-231v-30h32v30H24zM24 0v-190h32V0H24" id="j"/><path fill="#c92d39" d="M100-194c62-1 85 37 85 99 1 63-27 99-86 99S16-35 15-95c0-66 28-99 85-99zM99-20c44 1 53-31 53-75 0-43-8-75-51-75s-53 32-53 75 10 74 51 75" id="k"/><path fill="#c92d39" d="M212-179c-10-28-35-45-73-45-59 0-87 40-87 99 0 60 29 101 89 101 43 0 62-24 78-52l27 14C228-24 195 4 139 4 59 4 22-46 18-125c-6-104 99-153 187-111 19 9 31 26 39 46" id="l"/><path fill="#c92d39" d="M117-194c89-4 53 116 60 194h-32v-121c0-31-8-49-39-48C34-167 62-67 57 0H25l-1-190h30c1 10-1 24 2 32 11-22 29-35 61-36" id="m"/><path fill="#c92d39" d="M59-47c-2 24 18 29 38 22v24C64 9 27 4 27-40v-127H5v-23h24l9-43h21v43h35v23H59v120" id="n"/><path fill="#c92d39" d="M100-194c63 0 86 42 84 106H49c0 40 14 67 53 68 26 1 43-12 49-29l28 8c-11 28-37 45-77 45C44 4 14-33 15-96c1-61 26-98 85-98zm52 81c6-60-76-77-97-28-3 7-6 17-6 28h103" id="o"/><path fill="#c92d39" d="M141 0L90-78 38 0H4l68-98-65-92h35l48 74 47-74h35l-64 92 68 98h-35" id="p"/><g id="a"><use transform="matrix(0.08641975308641976,0,0,0.08641975308641976,0,0)" xlink:href="#g"/><use transform="matrix(0.08641975308641976,0,0,0.08641975308641976,20.740740740740744,0)" xlink:href="#h"/><use transform="matrix(0.08641975308641976,0,0,0.08641975308641976,38.0246913580247,0)" xlink:href="#i"/><use transform="matrix(0.08641975308641976,0,0,0.08641975308641976,55.308641975308646,0)" xlink:href="#j"/><use transform="matrix(0.08641975308641976,0,0,0.08641975308641976,62.13580246913581,0)" xlink:href="#k"/><use transform="matrix(0.08641975308641976,0,0,0.08641975308641976,79.41975308641976,0)" xlink:href="#l"/><use transform="matrix(0.08641975308641976,0,0,0.08641975308641976,101.80246913580248,0)" xlink:href="#k"/><use transform="matrix(0.08641975308641976,0,0,0.08641975308641976,119.08641975308643,0)" xlink:href="#m"/><use transform="matrix(0.08641975308641976,0,0,0.08641975308641976,136.37037037037038,0)" xlink:href="#n"/><use transform="matrix(0.08641975308641976,0,0,0.08641975308641976,145.01234567901236,0)" xlink:href="#o"/><use transform="matrix(0.08641975308641976,0,0,0.08641975308641976,162.2962962962963,0)" xlink:href="#p"/><use transform="matrix(0.08641975308641976,0,0,0.08641975308641976,177.85185185185182,0)" xlink:href="#n"/></g><path d="M205 0l-28-72H64L36 0H1l101-248h38L239 0h-34zm-38-99l-47-123c-12 45-31 82-46 123h93" id="q"/><path d="M84 4C-5 8 30-112 23-190h32v120c0 31 7 50 39 49 72-2 45-101 50-169h31l1 190h-30c-1-10 1-25-2-33-11 22-28 36-60 37" id="r"/><path d="M85-194c31 0 48 13 60 33l-1-100h32l1 261h-30c-2-10 0-23-3-31C134-8 116 4 85 4 32 4 16-35 15-94c0-66 23-100 70-100zm9 24c-40 0-46 34-46 75 0 40 6 74 45 74 42 0 51-32 51-76 0-42-9-74-50-73" id="s"/><path d="M24-231v-30h32v30H24zM24 0v-190h32V0H24" id="t"/><path d="M100-194c62-1 85 37 85 99 1 63-27 99-86 99S16-35 15-95c0-66 28-99 85-99zM99-20c44 1 53-31 53-75 0-43-8-75-51-75s-53 32-53 75 10 74 51 75" id="u"/><path d="M30-248c118-7 216 8 213 122C240-48 200 0 122 0H30v-248zM63-27c89 8 146-16 146-99s-60-101-146-95v194" id="v"/><path d="M100-194c63 0 86 42 84 106H49c0 40 14 67 53 68 26 1 43-12 49-29l28 8c-11 28-37 45-77 45C44 4 14-33 15-96c1-61 26-98 85-98zm52 81c6-60-76-77-97-28-3 7-6 17-6 28h103" id="w"/><path d="M135-143c-3-34-86-38-87 0 15 53 115 12 119 90S17 21 10-45l28-5c4 36 97 45 98 0-10-56-113-15-118-90-4-57 82-63 122-42 12 7 21 19 24 35" id="x"/><path d="M59-47c-2 24 18 29 38 22v24C64 9 27 4 27-40v-127H5v-23h24l9-43h21v43h35v23H59v120" id="y"/><path d="M117-194c89-4 53 116 60 194h-32v-121c0-31-8-49-39-48C34-167 62-67 57 0H25l-1-190h30c1 10-1 24 2 32 11-22 29-35 61-36" id="z"/><path d="M141-36C126-15 110 5 73 4 37 3 15-17 15-53c-1-64 63-63 125-63 3-35-9-54-41-54-24 1-41 7-42 31l-33-3c5-37 33-52 76-52 45 0 72 20 72 64v82c-1 20 7 32 28 27v20c-31 9-61-2-59-35zM48-53c0 20 12 33 32 33 41-3 63-29 60-74-43 2-92-5-92 41" id="A"/><path d="M190 0L58-211 59 0H30v-248h39L202-35l-2-213h31V0h-41" id="B"/><g id="b"><use transform="matrix(0.05,0,0,0.05,0,0)" xlink:href="#q"/><use transform="matrix(0.05,0,0,0.05,12,0)" xlink:href="#r"/><use transform="matrix(0.05,0,0,0.05,22,0)" xlink:href="#s"/><use transform="matrix(0.05,0,0,0.05,32,0)" xlink:href="#t"/><use transform="matrix(0.05,0,0,0.05,35.95,0)" xlink:href="#u"/><use transform="matrix(0.05,0,0,0.05,45.95,0)" xlink:href="#v"/><use transform="matrix(0.05,0,0,0.05,58.900000000000006,0)" xlink:href="#w"/><use transform="matrix(0.05,0,0,0.05,68.9,0)" xlink:href="#x"/><use transform="matrix(0.05,0,0,0.05,77.9,0)" xlink:href="#y"/><use transform="matrix(0.05,0,0,0.05,82.9,0)" xlink:href="#t"/><use transform="matrix(0.05,0,0,0.05,86.85000000000001,0)" xlink:href="#z"/><use transform="matrix(0.05,0,0,0.05,96.85000000000001,0)" xlink:href="#A"/><use transform="matrix(0.05,0,0,0.05,106.85000000000001,0)" xlink:href="#y"/><use transform="matrix(0.05,0,0,0.05,111.85000000000001,0)" xlink:href="#t"/><use transform="matrix(0.05,0,0,0.05,115.80000000000001,0)" xlink:href="#y"/><use transform="matrix(0.05,0,0,0.05,120.80000000000001,0)" xlink:href="#u"/><use transform="matrix(0.05,0,0,0.05,130.8,0)" xlink:href="#z"/><use transform="matrix(0.05,0,0,0.05,140.8,0)" xlink:href="#B"/><use transform="matrix(0.05,0,0,0.05,153.75,0)" xlink:href="#u"/><use transform="matrix(0.05,0,0,0.05,163.75,0)" xlink:href="#s"/><use transform="matrix(0.05,0,0,0.05,173.75,0)" xlink:href="#w"/></g><g id="c"><use transform="matrix(0.05,0,0,0.05,0,0)" xlink:href="#q"/><use transform="matrix(0.05,0,0,0.05,12,0)" xlink:href="#r"/><use transform="matrix(0.05,0,0,0.05,22,0)" xlink:href="#s"/><use transform="matrix(0.05,0,0,0.05,32,0)" xlink:href="#t"/><use transform="matrix(0.05,0,0,0.05,35.95,0)" xlink:href="#u"/><use transform="matrix(0.05,0,0,0.05,45.95,0)" xlink:href="#B"/><use transform="matrix(0.05,0,0,0.05,58.900000000000006,0)" xlink:href="#u"/><use transform="matrix(0.05,0,0,0.05,68.9,0)" xlink:href="#s"/><use transform="matrix(0.05,0,0,0.05,78.9,0)" xlink:href="#w"/></g><path d="M30-248c87 1 191-15 191 75 0 78-77 80-158 76V0H30v-248zm33 125c57 0 124 11 124-50 0-59-68-47-124-48v98" id="C"/><path d="M114-163C36-179 61-72 57 0H25l-1-190h30c1 12-1 29 2 39 6-27 23-49 58-41v29" id="D"/><path d="M210-169c-67 3-38 105-44 169h-31v-121c0-29-5-50-35-48C34-165 62-65 56 0H25l-1-190h30c1 10-1 24 2 32 10-44 99-50 107 0 11-21 27-35 58-36 85-2 47 119 55 194h-31v-121c0-29-5-49-35-48" id="E"/><g id="d"><use transform="matrix(0.05,0,0,0.05,0,0)" xlink:href="#q"/><use transform="matrix(0.05,0,0,0.05,12,0)" xlink:href="#r"/><use transform="matrix(0.05,0,0,0.05,22,0)" xlink:href="#s"/><use transform="matrix(0.05,0,0,0.05,32,0)" xlink:href="#t"/><use transform="matrix(0.05,0,0,0.05,35.95,0)" xlink:href="#u"/><use transform="matrix(0.05,0,0,0.05,45.95,0)" xlink:href="#C"/><use transform="matrix(0.05,0,0,0.05,57.95,0)" xlink:href="#A"/><use transform="matrix(0.05,0,0,0.05,67.95,0)" xlink:href="#D"/><use transform="matrix(0.05,0,0,0.05,73.9,0)" xlink:href="#A"/><use transform="matrix(0.05,0,0,0.05,83.9,0)" xlink:href="#E"/></g><path d="M33 0v-38h34V0H33" id="F"/><path d="M96-169c-40 0-48 33-48 73s9 75 48 75c24 0 41-14 43-38l32 2c-6 37-31 61-74 61-59 0-76-41-82-99-10-93 101-131 147-64 4 7 5 14 7 22l-32 3c-4-21-16-35-41-35" id="G"/><path d="M87 75C49 33 22-17 22-94c0-76 28-126 65-167h31c-38 41-64 92-64 168S80 34 118 75H87" id="H"/><path d="M33-261c38 41 65 92 65 168S71 34 33 75H2C39 34 66-17 66-93S39-220 2-261h31" id="I"/><g id="e"><use transform="matrix(0.05,0,0,0.05,0,0)" xlink:href="#F"/><use transform="matrix(0.05,0,0,0.05,5,0)" xlink:href="#G"/><use transform="matrix(0.05,0,0,0.05,14,0)" xlink:href="#D"/><use transform="matrix(0.05,0,0,0.05,19.95,0)" xlink:href="#w"/><use transform="matrix(0.05,0,0,0.05,29.950000000000003,0)" xlink:href="#A"/><use transform="matrix(0.05,0,0,0.05,39.95,0)" xlink:href="#y"/><use transform="matrix(0.05,0,0,0.05,44.95,0)" xlink:href="#w"/><use transform="matrix(0.05,0,0,0.05,54.95,0)" xlink:href="#F"/><use transform="matrix(0.05,0,0,0.05,59.95,0)" xlink:href="#F"/><use transform="matrix(0.05,0,0,0.05,64.95,0)" xlink:href="#F"/><use transform="matrix(0.05,0,0,0.05,69.95,0)" xlink:href="#H"/><use transform="matrix(0.05,0,0,0.05,75.9,0)" xlink:href="#I"/></g><g id="f"><use transform="matrix(0.05,0,0,0.05,0,0)" xlink:href="#F"/><use transform="matrix(0.05,0,0,0.05,5,0)" xlink:href="#G"/><use transform="matrix(0.05,0,0,0.05,14,0)" xlink:href="#u"/><use transform="matrix(0.05,0,0,0.05,24,0)" xlink:href="#z"/><use transform="matrix(0.05,0,0,0.05,34,0)" xlink:href="#z"/><use transform="matrix(0.05,0,0,0.05,44,0)" xlink:href="#w"/><use transform="matrix(0.05,0,0,0.05,54,0)" xlink:href="#G"/><use transform="matrix(0.05,0,0,0.05,63,0)" xlink:href="#y"/><use transform="matrix(0.05,0,0,0.05,68,0)" xlink:href="#H"/><use transform="matrix(0.05,0,0,0.05,73.95,0)" xlink:href="#I"/></g></defs></g></svg>