<svg xmlns="http://www.w3.org/2000/svg" xmlns:xlink="http://www.w3.org/1999/xlink" xmlns:lucid="lucid" width="1069.87" height="718.4"><g transform="translate(0 0)" lucid:page-tab-id="0_0"><path d="M0 0h1069.87v718.4H0z" fill="#fff"/><path d="M812 104c16.57 0 30 13.43 30 30v520c0 16.57-13.43 30-30 30H172c-16.57 0-30-13.43-30-30V134c0-16.57 13.43-30 30-30z" fill="none"/><path d="M821.64 105.6l.18.04 3.42 1.52m6.48 4.35l2.5 2.33.3.4m4.3 6.54l.78 1.44.72 2.2m1.6 7.64L842 134v2.02m0 8.06v4.03m0 8.07v4.03m0 8.06v4.03m0 8.06v4.03m0 8.05v4.03m0 8.06v4.03m0 8.07v4.03m0 8.06v4.03m0 8.06v4.03m0 8.06v4.05m0 8.06v4.04m0 8.06v4.03m0 8.06v4.02m0 8.07v4.02m0 8.06v4.03m0 8.07v4.03m0 8.07v4.03m0 8.06v4.03m0 8.05v4.03m0 8.06v4.04m0 8.06v4.03m0 8.06v4.03m0 8.06v4.04m0 8.06v4.03m0 8.06v4.04m0 8.06v4.03m0 8.07v4.03m0 8.06v4.02m0 8.06v4.03m0 8.08v4.03m0 8.07v4.03m0 8.06V523m0 8.05v4.04m0 8.05v4.03m0 8.06v4.03m0 8.06v4.03m0 8.07v4.03m0 8.06v4.03m0 8.06v4.04m0 8.07v4.04m0 8.06v4.03m0 8.06v4.02m0 8.06V654l-.16 1.95m-1.44 7.7l-.04.17-1.52 3.42m-4.35 6.48l-2.33 2.5-.4.3m-6.54 4.3l-1.44.78-2.2.72m-7.64 1.6L812 684h-2m-8.06 0h-4.03m-8.04 0h-4.02m-8.05 0h-4.04m-8.05 0h-4m-8.06 0h-4.03m-8.04 0h-4.03m-8.05 0h-4.02m-8.05 0h-4.02m-8.05 0h-4.02m-8.04 0h-4.03m-8.05 0h-4.02m-8.05 0h-4.02m-8.05 0H653m-8.04 0h-4.03m-8.05 0h-4.02m-8.05 0h-4.02m-8.05 0h-4.03m-8.05 0h-4.02m-8.05 0h-4.03m-8.05 0h-4.02m-8.05 0h-4.03m-8.05 0h-4.02m-8.05 0h-4.03m-8.05 0h-4.02m-8.05 0h-4.03m-8.05 0h-4.02m-8.06 0h-4.02m-8.05 0h-4.03m-8.05 0h-4.02m-8.05 0h-4.03m-8.05 0h-4.02m-8.05 0h-4.03m-8.05 0h-4.02m-8.05 0h-4.03m-8.05 0h-4.02m-8.05 0h-4.03m-8.05 0h-4.03m-8.06 0h-4.02m-8.05 0h-4.03m-8.05 0h-4.03m-8.05 0h-4.03m-8.06 0h-4.02m-8.05 0h-4.03m-8.05 0h-4.03m-8.05 0h-4.03m-8.06 0h-4.02m-8.05 0h-4.03m-8.05 0h-4.04m-8.05 0h-4m-8.06 0h-4.03m-8.04 0h-4.02m-8.05 0h-4.04m-8.05 0h-2l-1.95-.16m-7.7-1.44l-.17-.04-3.42-1.52m-6.48-4.35l-2.5-2.33-.3-.4m-4.3-6.54l-.78-1.44-.72-2.2m-1.6-7.64L142 654v-2.02m0-8.06v-4.03m0-8.07v-4.03m0-8.06v-4.03m0-8.06v-4.03m0-8.05v-4.03m0-8.06v-4.03m0-8.07v-4.03m0-8.06v-4.03m0-8.06v-4.03m0-8.06v-4.05m0-8.06v-4.04m0-8.06v-4.03m0-8.06v-4.02m0-8.07v-4.02m0-8.06v-4.03m0-8.07v-4.03m0-8.07v-4.03m0-8.06v-4.03m0-8.05v-4.03m0-8.06v-4.04m0-8.06v-4.03m0-8.06v-4.03m0-8.06v-4.04m0-8.06v-4.03m0-8.06v-4.04m0-8.06v-4.03m0-8.07v-4.03m0-8.06v-4.02m0-8.06v-4.03m0-8.08v-4.03m0-8.07v-4.03m0-8.06V265m0-8.05v-4.04m0-8.05v-4.03m0-8.06v-4.03m0-8.06v-4.03m0-8.07v-4.03m0-8.06v-4.03m0-8.06v-4.04m0-8.07v-4.04m0-8.06v-4.03m0-8.06v-4.02m0-8.06V134l.16-1.95m1.44-7.7l.04-.17 1.52-3.42m4.35-6.48l2.33-2.5.4-.3m6.54-4.3l1.44-.78 2.2-.72m7.64-1.6L172 104h2m8.06 0h4.03m8.04 0h4.02m8.05 0h4.04m8.05 0h4m8.06 0h4.03m8.04 0h4.03m8.05 0h4.02m8.05 0h4.02m8.05 0h4.02m8.04 0h4.03m8.05 0h4.02m8.05 0h4.02m8.05 0H331m8.04 0h4.03m8.05 0h4.02m8.05 0h4.02m8.05 0h4.03m8.05 0h4.02m8.05 0h4.03m8.05 0h4.02m8.05 0h4.03m8.05 0h4.02m8.05 0h4.03m8.05 0h4.02m8.05 0h4.03m8.05 0h4.02m8.06 0h4.02m8.05 0h4.03m8.05 0h4.02m8.05 0h4.03m8.05 0h4.02m8.05 0h4.03m8.05 0h4.02m8.05 0h4.03m8.05 0h4.02m8.05 0h4.03m8.05 0h4.03m8.06 0h4.02m8.05 0h4.03m8.05 0h4.03m8.05 0h4.03m8.06 0h4.02m8.05 0h4.03m8.05 0h4.03m8.05 0h4.03m8.06 0h4.02m8.05 0h4.03m8.05 0h4.04m8.05 0h4m8.06 0h4.03m8.04 0h4.02m8.05 0h4.04m8.05 0h2l1.95.16" stroke="#000" stroke-width="2" fill="none"/><path d="M162 123c0-2.76 2.24-5 5-5h230c2.76 0 5 2.24 5 5v50c0 2.76-2.24 5-5 5H167c-2.76 0-5-2.24-5-5z" fill="none"/><use xlink:href="#a" transform="matrix(1,0,0,1,162,118) translate(3.901234567901227 37.111111111111114)"/><path d="M162 199c0-2.76 2.24-5 5-5h150c2.76 0 5 2.24 5 5v130c0 2.76-2.24 5-5 5H167c-2.76 0-5-2.24-5-5z" stroke="#000" stroke-width="2" fill="#fff"/><use xlink:href="#b" transform="matrix(1,0,0,1,162,194) translate(14.153148148148157 73.83333333333334)"/><path d="M192 344.5v43c0 2.75 2.24 5 5 5h80c2.76 0 5 2.23 5 5V443" fill="none"/><path d="M193 344.5c0 .56-.45 1-1 1s-1-.44-1-1c0-.55.45-1 1-1s1 .45 1 1zm0 8.6c0 .56-.45 1-1 1s-1-.44-1-1c0-.55.45-1 1-1s1 .45 1 1zm0 8.6c0 .55-.45 1-1 1s-1-.45-1-1 .45-1 1-1 1 .45 1 1zm0 8.6c0 .55-.45 1-1 1s-1-.45-1-1 .45-1 1-1 1 .45 1 1zm0 8.6c0 .55-.45 1-1 1s-1-.45-1-1c0-.56.45-1 1-1s1 .44 1 1zm0 8.6c0 .55-.45 1-1 1s-1-.45-1-1c0-.56.45-1 1-1s1 .44 1 1zm5 5c0 .55-.45 1-1 1s-1-.45-1-1c0-.56.45-1 1-1s1 .44 1 1zm8 0c0 .55-.45 1-1 1s-1-.45-1-1c0-.56.45-1 1-1s1 .44 1 1zm8 0c0 .55-.45 1-1 1s-1-.45-1-1c0-.56.45-1 1-1s1 .44 1 1zm8 0c0 .55-.45 1-1 1s-1-.45-1-1c0-.56.45-1 1-1s1 .44 1 1zm8 0c0 .55-.45 1-1 1s-1-.45-1-1c0-.56.45-1 1-1s1 .44 1 1zm8 0c0 .55-.45 1-1 1s-1-.45-1-1c0-.56.45-1 1-1s1 .44 1 1zm8 0c0 .55-.45 1-1 1s-1-.45-1-1c0-.56.45-1 1-1s1 .44 1 1zm8 0c0 .55-.45 1-1 1s-1-.45-1-1c0-.56.45-1 1-1s1 .44 1 1zm8 0c0 .55-.45 1-1 1s-1-.45-1-1c0-.56.45-1 1-1s1 .44 1 1zm8 0c0 .55-.45 1-1 1s-1-.45-1-1c0-.56.45-1 1-1s1 .44 1 1zm8 0c0 .55-.45 1-1 1s-1-.45-1-1c0-.56.45-1 1-1s1 .44 1 1zm5 5c0 .55-.45 1-1 1s-1-.45-1-1c0-.56.45-1 1-1s1 .44 1 1zm0 7.58c0 .55-.45 1-1 1s-1-.45-1-1 .45-1 1-1 1 .45 1 1zm0 7.58c0 .55-.45 1-1 1s-1-.45-1-1 .45-1 1-1 1 .45 1 1zm0 7.6c0 .54-.45 1-1 1s-1-.46-1-1c0-.57.45-1 1-1s1 .43 1 1zm0 7.57c0 .55-.45 1-1 1s-1-.45-1-1 .45-1 1-1 1 .45 1 1zm0 7.6c0 .54-.45 1-1 1s-1-.46-1-1c0-.57.45-1 1-1s1 .43 1 1zm0 7.57c0 .55-.45 1-1 1s-1-.45-1-1 .45-1 1-1 1 .45 1 1z"/><path d="M193 344.5h-2v-.66l1 .16 1-.16zM283 444h-2v-1h2z"/><path d="M242.78 103V49c0-2.76-2.24-5-5-5H27c-2.76 0-5 2.24-5 5v210c0 2.76 2.24 5 5 5h133.02M242.78 103v3" stroke="#000" fill="none"/><path d="M161 264l-18.8 11.12-.5-.86L159.03 264l-17.35-10.26.5-.86z"/><path d="M882 319c0-2.76 2.24-5 5-5h150c2.76 0 5 2.24 5 5v110c0 2.76-2.24 5-5 5H887c-2.76 0-5-2.24-5-5z" stroke="#000" stroke-width="2" fill="#fff"/><path d="M974.3 403.6l.1.1c1.6 1.4 4.1 1.1 5.4-.7 5.9-7.9 9.1-17.6 9.1-27.6s-3.2-19.7-9.1-27.6c-1.3-1.8-3.8-2.1-5.4-.6h-.1c-1.4 1.2-1.6 3.4-.5 4.9 5 6.7 7.7 14.9 7.7 23.3 0 8.5-2.7 16.6-7.7 23.4-1.1 1.5-.9 3.6.5 4.8m-15-11.1c1.6 1.6 4.3 1.5 5.6-.3 3.6-4.8 5.5-10.7 5.5-16.8 0-6.1-1.9-12-5.5-16.8-1.3-1.8-4-1.9-5.6-.3-1.3 1.3-1.4 3.3-.3 4.8 2.6 3.5 4 7.8 4 12.3 0 4.5-1.4 8.8-4 12.3-1.1 1.5-1 3.5.3 4.8m32.6-56.6c-1.5 1.3-1.8 3.5-.7 5 7.5 10 11.5 22.2 11.5 34.7 0 12.4-3.9 24.5-11.3 34.4-1.1 1.5-.7 3.7.7 4.9h.1c1.6 1.3 4 1.1 5.2-.5 8.2-11.2 12.7-24.8 12.7-38.8 0-14.1-4.6-27.9-13-39.2-1.2-1.6-3.7-1.8-5.2-.5M917.3 391h11.4l17.6 14.3c1.8 1.5 4.6-.1 4.6-2.5V348c0-2.4-2.8-3.3-4.6-1.8l-17.6 15.1h-11.4c-1.9 0-3.4.9-3.4 2.8v22.6c0 2 1.5 4.3 3.4 4.3" stroke="#f3f3f3" fill="#f3f3f3"/><path d="M2 9c0-2.76 2.24-5 5-5h230c2.76 0 5 2.24 5 5v50c0 2.76-2.24 5-5 5H7c-2.76 0-5-2.24-5-5z" fill="none"/><use xlink:href="#c" transform="matrix(1,0,0,1,2,4.000000000000028) translate(64.42283950617282 34.888888888888886)"/><path d="M402 309c0-2.76 2.24-5 5-5h150c2.76 0 5 2.24 5 5v130c0 2.76-2.24 5-5 5H407c-2.76 0-5-2.24-5-5z" stroke="#000" stroke-width="2" fill="#fff"/><use xlink:href="#b" transform="matrix(1,0,0,1,402,303.9999999999999) translate(14.153148148148157 73.83333333333334)"/><path d="M323 264h34c2.76 0 5 2.24 5 5v100c0 2.76 2.24 5 5 5h17.38" stroke="#000" fill="none"/><path d="M323 264.5h-1v-1h1zM399.38 374l-14.26 4.64v-9.28z"/><path d="M401 374l-16.38 5.32v-10.64zm-15.38 3.95l12.14-3.95-12.14-3.95z"/><path d="M202 334c0 5.52-4.48 10-10 10s-10-4.48-10-10 4.48-10 10-10 10 4.48 10 10z" stroke="#000"/><path d="M302 249c0-2.76 2.24-5 5-5h230c2.76 0 5 2.24 5 5v50c0 2.76-2.24 5-5 5H307c-2.76 0-5-2.24-5-5z" fill="none"/><use xlink:href="#d" transform="matrix(1,0,0,1,302,244) translate(65.7469135802469 34.888888888888886)"/><path d="M202 449c0-2.76 2.24-5 5-5h150c2.76 0 5 2.24 5 5v130c0 2.76-2.24 5-5 5H207c-2.76 0-5-2.24-5-5z" stroke="#000" stroke-width="2" fill="#fff"/><use xlink:href="#e" transform="matrix(1,0,0,1,202,444) translate(6.78277777777779 73.83333333333334)"/><path d="M622 309c0-2.76 2.24-5 5-5h150c2.76 0 5 2.24 5 5v130c0 2.76-2.24 5-5 5H627c-2.76 0-5-2.24-5-5z" stroke="#000" stroke-width="2" fill="#fff"/><use xlink:href="#f" transform="matrix(1,0,0,1,622,303.9999999999999) translate(15.634629629629623 73.83333333333334)"/><path d="M563 374h41.38" stroke="#000" fill="none"/><path d="M563 374.5h-1v-1h1zM619.38 374l-14.26 4.64v-9.28z"/><path d="M621 374l-16.38 5.32v-10.64zm-15.38 3.95l12.14-3.95-12.14-3.95z"/><path d="M783 374h81.38" stroke="#000" fill="none"/><path d="M783 374.5h-1v-1h1zM879.38 374l-14.26 4.64v-9.28z"/><path d="M881 374l-16.38 5.32v-10.64zm-15.38 3.95l12.14-3.95-12.14-3.95z"/><path d="M602 609c0-2.76 2.24-5 5-5h230c2.76 0 5 2.24 5 5v50c0 2.76-2.24 5-5 5H607c-2.76 0-5-2.24-5-5z" fill="none"/><use xlink:href="#g" transform="matrix(1,0,0,1,602,604) translate(43.37037037037037 35.333333333333336)"/><defs><path fill="#af1e3a" d="M199 0l-22-63H83L61 0H9l90-248h61L250 0h-51zm-33-102l-36-108c-10 38-24 72-36 108h72" id="h"/><path fill="#af1e3a" d="M85 4C-2 5 27-109 22-190h50c7 57-23 150 33 157 60-5 35-97 40-157h50l1 190h-47c-2-12 1-28-3-38-12 25-28 42-61 42" id="i"/><path fill="#af1e3a" d="M88-194c31-1 46 15 58 34l-1-101h50l1 261h-48c-2-10 0-23-3-31C134-8 116 4 84 4 32 4 16-41 15-95c0-56 19-97 73-99zm17 164c33 0 40-30 41-66 1-37-9-64-41-64s-38 30-39 65c0 43 13 65 39 65" id="j"/><path fill="#af1e3a" d="M25-224v-37h50v37H25zM25 0v-190h50V0H25" id="k"/><path fill="#af1e3a" d="M110-194c64 0 96 36 96 99 0 64-35 99-97 99-61 0-95-36-95-99 0-62 34-99 96-99zm-1 164c35 0 45-28 45-65 0-40-10-65-43-65-34 0-45 26-45 65 0 36 10 65 43 65" id="l"/><path fill="#af1e3a" d="M67-125c0 53 21 87 73 88 37 1 54-22 65-47l45 17C233-25 199 4 140 4 58 4 20-42 15-125 8-235 124-281 211-232c18 10 29 29 36 50l-46 12c-8-25-30-41-62-41-52 0-71 34-72 86" id="m"/><path fill="#af1e3a" d="M135-194c87-1 58 113 63 194h-50c-7-57 23-157-34-157-59 0-34 97-39 157H25l-1-190h47c2 12-1 28 3 38 12-26 28-41 61-42" id="n"/><path fill="#af1e3a" d="M115-3C79 11 28 4 28-45v-112H4v-33h27l15-45h31v45h36v33H77v99c-1 23 16 31 38 25v30" id="o"/><path fill="#af1e3a" d="M185-48c-13 30-37 53-82 52C43 2 14-33 14-96s30-98 90-98c62 0 83 45 84 108H66c0 31 8 55 39 56 18 0 30-7 34-22zm-45-69c5-46-57-63-70-21-2 6-4 13-4 21h74" id="p"/><path fill="#af1e3a" d="M144 0l-44-69L55 0H2l70-98-66-92h53l41 62 40-62h54l-67 91 71 99h-54" id="q"/><g id="a"><use transform="matrix(0.09876543209876544,0,0,0.09876543209876544,0,0)" xlink:href="#h"/><use transform="matrix(0.09876543209876544,0,0,0.09876543209876544,25.58024691358025,0)" xlink:href="#i"/><use transform="matrix(0.09876543209876544,0,0,0.09876543209876544,47.20987654320988,0)" xlink:href="#j"/><use transform="matrix(0.09876543209876544,0,0,0.09876543209876544,68.8395061728395,0)" xlink:href="#k"/><use transform="matrix(0.09876543209876544,0,0,0.09876543209876544,78.71604938271605,0)" xlink:href="#l"/><use transform="matrix(0.09876543209876544,0,0,0.09876543209876544,100.34567901234568,0)" xlink:href="#m"/><use transform="matrix(0.09876543209876544,0,0,0.09876543209876544,125.92592592592594,0)" xlink:href="#l"/><use transform="matrix(0.09876543209876544,0,0,0.09876543209876544,147.55555555555557,0)" xlink:href="#n"/><use transform="matrix(0.09876543209876544,0,0,0.09876543209876544,169.1851851851852,0)" xlink:href="#o"/><use transform="matrix(0.09876543209876544,0,0,0.09876543209876544,180.93827160493828,0)" xlink:href="#p"/><use transform="matrix(0.09876543209876544,0,0,0.09876543209876544,200.69135802469137,0)" xlink:href="#q"/><use transform="matrix(0.09876543209876544,0,0,0.09876543209876544,220.44444444444446,0)" xlink:href="#o"/></g><path d="M205 0l-28-72H64L36 0H1l101-248h38L239 0h-34zm-38-99l-47-123c-12 45-31 82-46 123h93" id="r"/><path d="M84 4C-5 8 30-112 23-190h32v120c0 31 7 50 39 49 72-2 45-101 50-169h31l1 190h-30c-1-10 1-25-2-33-11 22-28 36-60 37" id="s"/><path d="M85-194c31 0 48 13 60 33l-1-100h32l1 261h-30c-2-10 0-23-3-31C134-8 116 4 85 4 32 4 16-35 15-94c0-66 23-100 70-100zm9 24c-40 0-46 34-46 75 0 40 6 74 45 74 42 0 51-32 51-76 0-42-9-74-50-73" id="t"/><path d="M24-231v-30h32v30H24zM24 0v-190h32V0H24" id="u"/><path d="M100-194c62-1 85 37 85 99 1 63-27 99-86 99S16-35 15-95c0-66 28-99 85-99zM99-20c44 1 53-31 53-75 0-43-8-75-51-75s-53 32-53 75 10 74 51 75" id="v"/><path d="M190 0L58-211 59 0H30v-248h39L202-35l-2-213h31V0h-41" id="w"/><path d="M100-194c63 0 86 42 84 106H49c0 40 14 67 53 68 26 1 43-12 49-29l28 8c-11 28-37 45-77 45C44 4 14-33 15-96c1-61 26-98 85-98zm52 81c6-60-76-77-97-28-3 7-6 17-6 28h103" id="x"/><g id="b"><use transform="matrix(0.07407407407407408,0,0,0.07407407407407408,0,0)" xlink:href="#r"/><use transform="matrix(0.07407407407407408,0,0,0.07407407407407408,17.77777777777778,0)" xlink:href="#s"/><use transform="matrix(0.07407407407407408,0,0,0.07407407407407408,32.592592592592595,0)" xlink:href="#t"/><use transform="matrix(0.07407407407407408,0,0,0.07407407407407408,47.40740740740741,0)" xlink:href="#u"/><use transform="matrix(0.07407407407407408,0,0,0.07407407407407408,53.25925925925927,0)" xlink:href="#v"/><use transform="matrix(0.07407407407407408,0,0,0.07407407407407408,68.07407407407408,0)" xlink:href="#w"/><use transform="matrix(0.07407407407407408,0,0,0.07407407407407408,87.25925925925927,0)" xlink:href="#v"/><use transform="matrix(0.07407407407407408,0,0,0.07407407407407408,102.07407407407408,0)" xlink:href="#t"/><use transform="matrix(0.07407407407407408,0,0,0.07407407407407408,116.88888888888889,0)" xlink:href="#x"/></g><path d="M33 0v-38h34V0H33" id="y"/><path d="M96-169c-40 0-48 33-48 73s9 75 48 75c24 0 41-14 43-38l32 2c-6 37-31 61-74 61-59 0-76-41-82-99-10-93 101-131 147-64 4 7 5 14 7 22l-32 3c-4-21-16-35-41-35" id="z"/><path d="M114-163C36-179 61-72 57 0H25l-1-190h30c1 12-1 29 2 39 6-27 23-49 58-41v29" id="A"/><path d="M141-36C126-15 110 5 73 4 37 3 15-17 15-53c-1-64 63-63 125-63 3-35-9-54-41-54-24 1-41 7-42 31l-33-3c5-37 33-52 76-52 45 0 72 20 72 64v82c-1 20 7 32 28 27v20c-31 9-61-2-59-35zM48-53c0 20 12 33 32 33 41-3 63-29 60-74-43 2-92-5-92 41" id="B"/><path d="M59-47c-2 24 18 29 38 22v24C64 9 27 4 27-40v-127H5v-23h24l9-43h21v43h35v23H59v120" id="C"/><path d="M87 75C49 33 22-17 22-94c0-76 28-126 65-167h31c-38 41-64 92-64 168S80 34 118 75H87" id="D"/><path d="M33-261c38 41 65 92 65 168S71 34 33 75H2C39 34 66-17 66-93S39-220 2-261h31" id="E"/><g id="c"><use transform="matrix(0.06790123456790124,0,0,0.06790123456790124,0,0)" xlink:href="#y"/><use transform="matrix(0.06790123456790124,0,0,0.06790123456790124,6.790123456790124,0)" xlink:href="#z"/><use transform="matrix(0.06790123456790124,0,0,0.06790123456790124,19.01234567901235,0)" xlink:href="#A"/><use transform="matrix(0.06790123456790124,0,0,0.06790123456790124,27.092592592592595,0)" xlink:href="#x"/><use transform="matrix(0.06790123456790124,0,0,0.06790123456790124,40.67283950617284,0)" xlink:href="#B"/><use transform="matrix(0.06790123456790124,0,0,0.06790123456790124,54.25308641975309,0)" xlink:href="#C"/><use transform="matrix(0.06790123456790124,0,0,0.06790123456790124,61.043209876543216,0)" xlink:href="#x"/><use transform="matrix(0.06790123456790124,0,0,0.06790123456790124,74.62345679012347,0)" xlink:href="#y"/><use transform="matrix(0.06790123456790124,0,0,0.06790123456790124,81.4135802469136,0)" xlink:href="#y"/><use transform="matrix(0.06790123456790124,0,0,0.06790123456790124,88.20370370370372,0)" xlink:href="#y"/><use transform="matrix(0.06790123456790124,0,0,0.06790123456790124,94.99382716049385,0)" xlink:href="#D"/><use transform="matrix(0.06790123456790124,0,0,0.06790123456790124,103.0740740740741,0)" xlink:href="#E"/></g><path d="M117-194c89-4 53 116 60 194h-32v-121c0-31-8-49-39-48C34-167 62-67 57 0H25l-1-190h30c1 10-1 24 2 32 11-22 29-35 61-36" id="F"/><g id="d"><use transform="matrix(0.06790123456790124,0,0,0.06790123456790124,0,0)" xlink:href="#y"/><use transform="matrix(0.06790123456790124,0,0,0.06790123456790124,6.790123456790124,0)" xlink:href="#z"/><use transform="matrix(0.06790123456790124,0,0,0.06790123456790124,19.01234567901235,0)" xlink:href="#v"/><use transform="matrix(0.06790123456790124,0,0,0.06790123456790124,32.592592592592595,0)" xlink:href="#F"/><use transform="matrix(0.06790123456790124,0,0,0.06790123456790124,46.17283950617284,0)" xlink:href="#F"/><use transform="matrix(0.06790123456790124,0,0,0.06790123456790124,59.75308641975309,0)" xlink:href="#x"/><use transform="matrix(0.06790123456790124,0,0,0.06790123456790124,73.33333333333334,0)" xlink:href="#z"/><use transform="matrix(0.06790123456790124,0,0,0.06790123456790124,85.55555555555557,0)" xlink:href="#C"/><use transform="matrix(0.06790123456790124,0,0,0.06790123456790124,92.3456790123457,0)" xlink:href="#D"/><use transform="matrix(0.06790123456790124,0,0,0.06790123456790124,100.42592592592595,0)" xlink:href="#E"/></g><path d="M30-248c87 1 191-15 191 75 0 78-77 80-158 76V0H30v-248zm33 125c57 0 124 11 124-50 0-59-68-47-124-48v98" id="G"/><path d="M210-169c-67 3-38 105-44 169h-31v-121c0-29-5-50-35-48C34-165 62-65 56 0H25l-1-190h30c1 10-1 24 2 32 10-44 99-50 107 0 11-21 27-35 58-36 85-2 47 119 55 194h-31v-121c0-29-5-49-35-48" id="H"/><g id="e"><use transform="matrix(0.07407407407407408,0,0,0.07407407407407408,0,0)" xlink:href="#r"/><use transform="matrix(0.07407407407407408,0,0,0.07407407407407408,17.77777777777778,0)" xlink:href="#s"/><use transform="matrix(0.07407407407407408,0,0,0.07407407407407408,32.592592592592595,0)" xlink:href="#t"/><use transform="matrix(0.07407407407407408,0,0,0.07407407407407408,47.40740740740741,0)" xlink:href="#u"/><use transform="matrix(0.07407407407407408,0,0,0.07407407407407408,53.25925925925927,0)" xlink:href="#v"/><use transform="matrix(0.07407407407407408,0,0,0.07407407407407408,68.07407407407408,0)" xlink:href="#G"/><use transform="matrix(0.07407407407407408,0,0,0.07407407407407408,85.85185185185185,0)" xlink:href="#B"/><use transform="matrix(0.07407407407407408,0,0,0.07407407407407408,100.66666666666666,0)" xlink:href="#A"/><use transform="matrix(0.07407407407407408,0,0,0.07407407407407408,109.48148148148147,0)" xlink:href="#B"/><use transform="matrix(0.07407407407407408,0,0,0.07407407407407408,124.29629629629628,0)" xlink:href="#H"/></g><path d="M135-143c-3-34-86-38-87 0 15 53 115 12 119 90S17 21 10-45l28-5c4 36 97 45 98 0-10-56-113-15-118-90-4-57 82-63 122-42 12 7 21 19 24 35" id="I"/><g id="f"><use transform="matrix(0.07407407407407408,0,0,0.07407407407407408,0,0)" xlink:href="#t"/><use transform="matrix(0.07407407407407408,0,0,0.07407407407407408,14.814814814814817,0)" xlink:href="#x"/><use transform="matrix(0.07407407407407408,0,0,0.07407407407407408,29.629629629629633,0)" xlink:href="#I"/><use transform="matrix(0.07407407407407408,0,0,0.07407407407407408,42.96296296296297,0)" xlink:href="#C"/><use transform="matrix(0.07407407407407408,0,0,0.07407407407407408,50.370370370370374,0)" xlink:href="#u"/><use transform="matrix(0.07407407407407408,0,0,0.07407407407407408,56.222222222222236,0)" xlink:href="#F"/><use transform="matrix(0.07407407407407408,0,0,0.07407407407407408,71.03703703703705,0)" xlink:href="#B"/><use transform="matrix(0.07407407407407408,0,0,0.07407407407407408,85.85185185185188,0)" xlink:href="#C"/><use transform="matrix(0.07407407407407408,0,0,0.07407407407407408,93.2592592592593,0)" xlink:href="#u"/><use transform="matrix(0.07407407407407408,0,0,0.07407407407407408,99.11111111111113,0)" xlink:href="#v"/><use transform="matrix(0.07407407407407408,0,0,0.07407407407407408,113.92592592592595,0)" xlink:href="#F"/></g><path fill="#0c7cba" d="M190-63c-7 42-38 67-86 67-59 0-84-38-90-98-12-110 154-137 174-36l-49 2c-2-19-15-32-35-32-30 0-35 28-38 64-6 74 65 87 74 30" id="J"/><path fill="#0c7cba" d="M85 4C-2 5 27-109 22-190h50c7 57-23 150 33 157 60-5 35-97 40-157h50l1 190h-47c-2-12 1-28-3-38-12 25-28 42-61 42" id="K"/><path fill="#0c7cba" d="M135-150c-39-12-60 13-60 57V0H25l-1-190h47c2 13-1 29 3 40 6-28 27-53 61-41v41" id="L"/><path fill="#0c7cba" d="M185-48c-13 30-37 53-82 52C43 2 14-33 14-96s30-98 90-98c62 0 83 45 84 108H66c0 31 8 55 39 56 18 0 30-7 34-22zm-45-69c5-46-57-63-70-21-2 6-4 13-4 21h74" id="M"/><path fill="#0c7cba" d="M135-194c87-1 58 113 63 194h-50c-7-57 23-157-34-157-59 0-34 97-39 157H25l-1-190h47c2 12-1 28 3 38 12-26 28-41 61-42" id="N"/><path fill="#0c7cba" d="M115-3C79 11 28 4 28-45v-112H4v-33h27l15-45h31v45h36v33H77v99c-1 23 16 31 38 25v30" id="O"/><path fill="#0c7cba" d="M136-208V0H84v-208H4v-40h212v40h-80" id="P"/><path fill="#0c7cba" d="M25-224v-37h50v37H25zM25 0v-190h50V0H25" id="Q"/><path fill="#0c7cba" d="M220-157c-53 9-28 100-34 157h-49v-107c1-27-5-49-29-50C55-147 81-57 75 0H25l-1-190h47c2 12-1 28 3 38 10-53 101-56 108 0 13-22 24-43 59-42 82 1 51 116 57 194h-49v-107c-1-25-5-48-29-50" id="R"/><g id="g"><use transform="matrix(0.07407407407407408,0,0,0.07407407407407408,0,0)" xlink:href="#J"/><use transform="matrix(0.07407407407407408,0,0,0.07407407407407408,14.814814814814817,0)" xlink:href="#K"/><use transform="matrix(0.07407407407407408,0,0,0.07407407407407408,31.03703703703704,0)" xlink:href="#L"/><use transform="matrix(0.07407407407407408,0,0,0.07407407407407408,41.40740740740741,0)" xlink:href="#L"/><use transform="matrix(0.07407407407407408,0,0,0.07407407407407408,51.777777777777786,0)" xlink:href="#M"/><use transform="matrix(0.07407407407407408,0,0,0.07407407407407408,66.59259259259261,0)" xlink:href="#N"/><use transform="matrix(0.07407407407407408,0,0,0.07407407407407408,82.81481481481484,0)" xlink:href="#O"/><use transform="matrix(0.07407407407407408,0,0,0.07407407407407408,91.62962962962965,0)" xlink:href="#P"/><use transform="matrix(0.07407407407407408,0,0,0.07407407407407408,107.33333333333337,0)" xlink:href="#Q"/><use transform="matrix(0.07407407407407408,0,0,0.07407407407407408,114.74074074074076,0)" xlink:href="#R"/><use transform="matrix(0.07407407407407408,0,0,0.07407407407407408,138.44444444444446,0)" xlink:href="#M"/></g></defs></g></svg>