<svg xmlns="http://www.w3.org/2000/svg" xmlns:xlink="http://www.w3.org/1999/xlink" xmlns:lucid="lucid" width="1407.5" height="762"><g transform="translate(80 2)" lucid:page-tab-id="0_0"><path d="M0 0h1323.2v1870.4H0z" fill="#fff"/><path d="M82 163c0-2.76 2.24-5 5-5h190c2.76 0 5 2.24 5 5v190c0 2.76-2.24 5-5 5H87c-2.76 0-5-2.24-5-5z" stroke="#0d1f54" stroke-width="2" fill="none"/><path d="M62 233c0-2.76 2.24-5 5-5h230c2.76 0 5 2.24 5 5v50c0 2.76-2.24 5-5 5H67c-2.76 0-5-2.24-5-5z" fill="none"/><use xlink:href="#a" transform="matrix(1,0,0,1,62,228) translate(47.31481481481481 34.44444444444444)"/><path d="M1087.5 297c0-2.76 2.24-5 5-5h190c2.76 0 5 2.24 5 5v190c0 2.76-2.24 5-5 5h-190c-2.76 0-5-2.24-5-5z" stroke="#0d1f54" stroke-width="2" fill="none"/><path d="M1067.5 367c0-2.76 2.24-5 5-5h230c2.76 0 5 2.24 5 5v50c0 2.76-2.24 5-5 5h-230c-2.76 0-5-2.24-5-5z" fill="none"/><use xlink:href="#b" transform="matrix(1,0,0,1,1067.5000000000007,362) translate(66.35802469135803 34.44444444444444)"/><path d="M341.5 293c0-2.76 2.24-5 5-5h190c2.76 0 5 2.24 5 5v190c0 2.76-2.24 5-5 5h-190c-2.76 0-5-2.24-5-5z" stroke="#0d1f54" stroke-width="2" fill="none"/><path d="M321 363c0-2.76 2.24-5 5-5h230c2.76 0 5 2.24 5 5v50c0 2.76-2.24 5-5 5H326c-2.76 0-5-2.24-5-5z" fill="none"/><use xlink:href="#c" transform="matrix(1,0,0,1,321,358) translate(70.06172839506172 34.44444444444444)"/><path d="M283 258h.4l.4.03.37.04.4.06.37.07.38.1.38.1.4.12.38.15.4.17.4.2.4.2.43.24.44.28.46.3.46.37.5.4.5.47.55.53.58.6.62.72.66.84.7.97.8 1.18.85 1.42.97 1.74 1.08 2.2 1.24 2.8 1.46 3.72 1.8 5.18 2.37 7.9 3.9 15.4 11.34 48.4 2.37 7.9 1.8 5.18 1.47 3.72 1.25 2.8 1.08 2.2M283 258l-2.42-1.78" stroke="#0d1f54" stroke-width="2" fill="none"/><path d="M338.04 385.9l-13.84-5.8 6.04-7.02z" stroke="#0d1f54" stroke-width="2" fill="#0d1f54"/><path d="M1053.7 392h14.56M1053.7 392h-3" stroke="#0d1f54" stroke-width="2" fill="none"/><path d="M1083.26 392l-14.26 4.64v-9.28z" stroke="#0d1f54" stroke-width="2" fill="#0d1f54"/><path d="M122 160c0 5.52-4.48 10-10 10s-10-4.48-10-10 4.48-10 10-10 10 4.48 10 10zM260 160c0 5.52-4.48 10-10 10s-10-4.48-10-10 4.48-10 10-10 10 4.48 10 10zM381.5 290c0 5.52-4.48 10-10 10s-10-4.48-10-10 4.48-10 10-10 10 4.48 10 10z" stroke="#0d1f54" stroke-width="2"/><path d="M79 161.33c0-2.76 2.24-5 5-5h85c2.76 0 5 2.24 5 5v50c0 2.76-2.24 5-5 5H84c-2.76 0-5-2.24-5-5z" fill="none"/><use xlink:href="#d" transform="matrix(1,0,0,1,79.00000000000001,156.33333333333331) translate(8.024999999999999 33.6)"/><path d="M202.5 160c0-2.76 2.24-5 5-5h85c2.76 0 5 2.24 5 5v50c0 2.76-2.24 5-5 5h-85c-2.76 0-5-2.24-5-5z" fill="none"/><use xlink:href="#e" transform="matrix(1,0,0,1,202.5,155) translate(20 33.6)"/><path d="M322 290c0-2.76 2.24-5 5-5h85c2.76 0 5 2.24 5 5v50c0 2.76-2.24 5-5 5h-85c-2.76 0-5-2.24-5-5z" fill="none"/><use xlink:href="#f" transform="matrix(1,0,0,1,321.99999999999994,285) translate(30.525 33.6)"/><path d="M82 473c0-2.76 2.24-5 5-5h190c2.76 0 5 2.24 5 5v190c0 2.76-2.24 5-5 5H87c-2.76 0-5-2.24-5-5z" stroke="#0d1f54" stroke-width="2" fill="none"/><path d="M62 543c0-2.76 2.24-5 5-5h230c2.76 0 5 2.24 5 5v50c0 2.76-2.24 5-5 5H67c-2.76 0-5-2.24-5-5z" fill="none"/><use xlink:href="#a" transform="matrix(1,0,0,1,62,538) translate(47.31481481481481 34.44444444444444)"/><path d="M283 568h.3l.27-.02.28-.03.3-.05.27-.05.28-.07.3-.08.27-.1.3-.1.3-.12.3-.15.32-.16.3-.2.35-.2.34-.25.36-.27.38-.32.4-.36.43-.42.46-.5.5-.56.52-.68.58-.8.63-.94.7-1.16.78-1.42.88-1.8 1.02-2.27 1.18-3 1.42-4.08 1.74-5.83 2.3-8.96 3.38-16.14 16.57-93.98 2.3-8.96 1.73-5.83 1.42-4.08 1.18-3 .23-.52M283 568l-2.22 2.02" stroke="#0d1f54" stroke-width="2" fill="none"/><path d="M338.27 390.35l-6.45 13.54-6.73-6.4z" stroke="#0d1f54" stroke-width="2" fill="#0d1f54"/><path d="M122 470c0 5.52-4.48 10-10 10s-10-4.48-10-10 4.48-10 10-10 10 4.48 10 10zM260 470c0 5.52-4.48 10-10 10s-10-4.48-10-10 4.48-10 10-10 10 4.48 10 10z" stroke="#0d1f54" stroke-width="2"/><path d="M79 470c0-2.76 2.24-5 5-5h85c2.76 0 5 2.24 5 5v50c0 2.76-2.24 5-5 5H84c-2.76 0-5-2.24-5-5z" fill="none"/><use xlink:href="#d" transform="matrix(1,0,0,1,79.00000000000001,464.99999999999994) translate(8.024999999999999 33.6)"/><path d="M202.5 470c0-2.76 2.24-5 5-5h85c2.76 0 5 2.24 5 5v50c0 2.76-2.24 5-5 5h-85c-2.76 0-5-2.24-5-5z" fill="none"/><use xlink:href="#e" transform="matrix(1,0,0,1,202.5,464.99999999999994) translate(20 33.6)"/><path d="M530 80c16.57 0 30 13.43 30 30v580c0 16.57-13.43 30-30 30H50c-16.57 0-30-13.43-30-30V110c0-16.57 13.43-30 30-30z" fill="none"/><path d="M539.64 81.6l.18.04 3.42 1.52m6.48 4.35l2.5 2.33.3.4m4.3 6.54l.78 1.44.72 2.2m1.6 7.64L560 110v2m0 8.07v4.03m0 8.05v4.03m0 8.06v4.02m0 8.06v4.03m0 8.05v4.03m0 8.06v4m0 8.07v4.03m0 8.05v4.03m0 8.06v4.02m0 8.06v4.03m0 8.05v4.03m0 8.06v4m0 8.07v4.03m0 8.05v4.03m0 8.06v4.02m0 8.06v4.03m0 8.05v4.03m0 8.06v4m0 8.07v4.03m0 8.05v4.03m0 8.06v4.02m0 8.06v4.03m0 8.05v4.03m0 8.06v4m0 8.07v4.03m0 8.05v4.03m0 8.06v4.02m0 8.06v4.03m0 8.05v4.03m0 8.06v4m0 8.07v4.03m0 8.05v4.03m0 8.06v4.02m0 8.06v4.03m0 8.05v4.03m0 8.06v4m0 8.07v4.03m0 8.05v4.03m0 8.06v4.02m0 8.06v4.03m0 8.05v4.03m0 8.06v4m0 8.07v4.03m0 8.05v4.03m0 8.06v4.02m0 8.06v4.03m0 8.05v4.03m0 8.06v2l-.16 1.95m-1.44 7.7l-.04.17-1.52 3.42m-4.35 6.48l-2.33 2.5-.4.3m-6.54 4.3l-1.44.78-2.2.72m-7.64 1.6L530 720h-2m-8 0h-4m-8 0h-4m-8 0h-4m-8 0h-4m-8 0h-4m-8 0h-4m-8 0h-4m-8 0h-4m-8 0h-4m-8 0h-4m-8 0h-4m-8 0h-4m-8 0h-4m-8 0h-4m-8 0h-4m-8 0h-4m-8 0h-4m-8 0h-4m-8 0h-4m-8 0h-4m-8 0h-4m-8 0h-4m-8 0h-4m-8 0h-4m-8 0h-4m-8 0h-4m-8 0h-4m-8 0h-4m-8 0h-4m-8 0h-4m-8 0h-4m-8 0h-4m-8 0h-4m-8 0h-4m-8 0h-4m-8 0h-4m-8 0h-4m-8 0h-4m-8 0h-4m-8 0h-2l-1.95-.16m-7.7-1.44l-.17-.04-3.42-1.52m-6.48-4.35l-2.5-2.33-.3-.4m-4.3-6.54l-.78-1.44-.72-2.2m-1.6-7.64L20 690v-2m0-8.07v-4.03m0-8.05v-4.03m0-8.06v-4.02m0-8.06v-4.03m0-8.05v-4.03m0-8.06v-4m0-8.07v-4.03m0-8.05v-4.03m0-8.06v-4.02m0-8.06v-4.03m0-8.05v-4.03m0-8.06v-4m0-8.07v-4.03m0-8.05v-4.03m0-8.06v-4.02m0-8.06v-4.03m0-8.05v-4.03m0-8.06v-4m0-8.07v-4.03m0-8.05v-4.03m0-8.06v-4.02m0-8.06v-4.03m0-8.05v-4.03m0-8.06v-4m0-8.07v-4.03m0-8.05v-4.03m0-8.06v-4.02m0-8.06v-4.03m0-8.05v-4.03m0-8.06v-4m0-8.07v-4.03m0-8.05v-4.03m0-8.06v-4.02m0-8.06v-4.03m0-8.05v-4.03m0-8.06v-4m0-8.07v-4.03m0-8.05v-4.03m0-8.06v-4.02m0-8.06v-4.03m0-8.05v-4.03m0-8.06v-4m0-8.07v-4.03m0-8.05v-4.03m0-8.06v-4.02m0-8.06v-4.03m0-8.05v-4.03m0-8.06v-2l.16-1.95m1.44-7.7l.04-.17 1.52-3.42m4.35-6.48l2.33-2.5.4-.3m6.54-4.3l1.44-.78 2.2-.72m7.64-1.6L50 80h2m8 0h4m8 0h4m8 0h4m8 0h4m8 0h4m8 0h4m8 0h4m8 0h4m8 0h4m8 0h4m8 0h4m8 0h4m8 0h4m8 0h4m8 0h4m8 0h4m8 0h4m8 0h4m8 0h4m8 0h4m8 0h4m8 0h4m8 0h4m8 0h4m8 0h4m8 0h4m8 0h4m8 0h4m8 0h4m8 0h4m8 0h4m8 0h4m8 0h4m8 0h4m8 0h4m8 0h4m8 0h4m8 0h4m8 0h4m8 0h2l1.95.16" stroke="#000" stroke-width="2" fill="none"/><path d="M-8 93c0-2.76 2.24-5 5-5h230c2.76 0 5 2.24 5 5v57.2c0 2.76-2.24 5-5 5H-3c-2.76 0-5-2.24-5-5z" fill="none"/><use xlink:href="#g" transform="matrix(1,0,0,1,-8,88) translate(85.48148148148148 39.333333333333336)"/><path d="M852.7 297c0-2.76 2.24-5 5-5h190c2.76 0 5 2.24 5 5v190c0 2.76-2.24 5-5 5h-190c-2.76 0-5-2.24-5-5z" stroke="#0d1f54" stroke-width="2" fill="none"/><path d="M832.2 367c0-2.76 2.24-5 5-5h230c2.76 0 5 2.24 5 5v50c0 2.76-2.24 5-5 5h-230c-2.76 0-5-2.24-5-5z" fill="none"/><use xlink:href="#c" transform="matrix(1,0,0,1,832.2000000000003,362) translate(70.06172839506172 34.44444444444444)"/><path d="M892.7 294c0 5.52-4.48 10-10 10s-10-4.48-10-10 4.48-10 10-10 10 4.48 10 10z" stroke="#0d1f54" stroke-width="2"/><path d="M833.2 294c0-2.76 2.24-5 5-5h85c2.76 0 5 2.24 5 5v50c0 2.76-2.24 5-5 5h-85c-2.76 0-5-2.24-5-5z" fill="none"/><use xlink:href="#f" transform="matrix(1,0,0,1,833.2000000000003,289) translate(30.525 33.6)"/><path d="M136 285h80v40h-80z" fill="none"/><path d="M136 305c0-11.05 8.95-20 20-20s20 8.95 20 20m0 0c0 11.05 8.95 20 20 20s20-8.95 20-20" stroke="#000" stroke-width="2" fill="none"/><path d="M136 598h80v40h-80z" fill="none"/><path d="M136 618v-20h40v40h40v-20" stroke="#000" stroke-width="2" fill="none"/><path d="M362 424h55v27.5h-55z" fill="none"/><path d="M362 437.75c0-7.6 6.16-13.75 13.75-13.75 7.6 0 13.75 6.16 13.75 13.75m0 0c0 7.6 6.16 13.75 13.75 13.75 7.6 0 13.75-6.16 13.75-13.75" stroke="#000" stroke-width="2" fill="none"/><path d="M431 428h20v20h-20z" fill="none"/><path d="M441 428v20m-10-10h20" stroke="#000" stroke-width="2"/><path d="M431 428h20v20h-20zM465 423h57v30h-57z" fill="none"/><path d="M465 438v-15h28.5v30H522v-15" stroke="#000" stroke-width="2" fill="none"/><path d="M613 297c0-2.76 2.24-5 5-5h190c2.76 0 5 2.24 5 5v190c0 2.76-2.24 5-5 5H618c-2.76 0-5-2.24-5-5z" stroke="#0d1f54" stroke-width="2" fill="none"/><path d="M593 367c0-2.76 2.24-5 5-5h230c2.76 0 5 2.24 5 5v50c0 2.76-2.24 5-5 5H598c-2.76 0-5-2.24-5-5z" fill="none"/><use xlink:href="#h" transform="matrix(1,0,0,1,593.0000000000005,362) translate(34.382716049382736 34.44444444444444)"/><path d="M723 490c0 5.52-4.48 10-10 10s-10-4.48-10-10 4.48-10 10-10 10 4.48 10 10z" stroke="#0d1f54" stroke-width="2"/><path d="M665.5 433c0-2.76 2.24-5 5-5h85c2.76 0 5 2.24 5 5v50c0 2.76-2.24 5-5 5h-85c-2.76 0-5-2.24-5-5z" fill="none"/><use xlink:href="#i" transform="matrix(1,0,0,1,665.5000000000005,428.00000000000006) translate(40.5 33.6)"/><path d="M652 294c0 5.52-4.48 10-10 10s-10-4.48-10-10 4.48-10 10-10 10 4.48 10 10z" stroke="#0d1f54" stroke-width="2"/><path d="M609 295.33c0-2.76 2.24-5 5-5h85c2.76 0 5 2.24 5 5v50c0 2.76-2.24 5-5 5h-85c-2.76 0-5-2.24-5-5z" fill="none"/><use xlink:href="#d" transform="matrix(1,0,0,1,609.0000000000005,290.3333333333333) translate(8.024999999999999 33.6)"/><path d="M732.5 294c0-2.76 2.24-5 5-5h85c2.76 0 5 2.24 5 5v50c0 2.76-2.24 5-5 5h-85c-2.76 0-5-2.24-5-5z" fill="none"/><use xlink:href="#e" transform="matrix(1,0,0,1,732.5000000000005,289) translate(20 33.6)"/><path d="M790 290c0 5.52-4.48 10-10 10s-10-4.48-10-10 4.48-10 10-10 10 4.48 10 10z" stroke="#0d1f54" stroke-width="2"/><path d="M814 392h19.46M814 392h-3" stroke="#000" stroke-width="2" fill="none"/><path d="M848.46 392l-14.26 4.64v-9.28z" stroke="#000" stroke-width="2"/><path d="M542.5 388h51.26M542.5 388h-3" stroke="#000" stroke-width="2" fill="none"/><path d="M608.76 388l-14.26 4.64v-9.28z" stroke="#000" stroke-width="2"/><path d="M550 20c16.57 0 30 13.43 30 30v660c0 16.57-13.43 30-30 30H30c-16.57 0-30-13.43-30-30V50c0-16.57 13.43-30 30-30z" fill="none"/><path d="M551 20c0 .55-.45 1-1 1s-1-.45-1-1 .45-1 1-1 1 .45 1 1zm7.74 1.1c0 .57-.45 1-1 1s-1-.43-1-1c0-.54.45-1 1-1s1 .46 1 1zm7.23 2.96c0 .55-.44 1-1 1-.55 0-1-.45-1-1s.45-1 1-1c.56 0 1 .45 1 1zm6.18 4.8c0 .54-.44 1-1 1-.55 0-1-.46-1-1 0-.56.45-1 1-1 .56 0 1 .44 1 1zm4.76 6.18c0 .55-.43 1-1 1-.54 0-1-.45-1-1s.46-1 1-1c.57 0 1 .45 1 1zm3.04 7.2c0 .56-.45 1-1 1-.56 0-1-.44-1-1 0-.54.44-1 1-1 .55 0 1 .46 1 1zM581 50c0 .55-.45 1-1 1s-1-.45-1-1 .45-1 1-1 1 .45 1 1zm0 7.95c0 .55-.45 1-1 1s-1-.45-1-1 .45-1 1-1 1 .45 1 1zm0 7.95c0 .56-.45 1-1 1s-1-.44-1-1c0-.55.45-1 1-1s1 .45 1 1zm0 7.96c0 .55-.45 1-1 1s-1-.45-1-1c0-.56.45-1 1-1s1 .44 1 1zm0 7.95c0 .56-.45 1-1 1s-1-.44-1-1c0-.55.45-1 1-1s1 .45 1 1zm0 7.96c0 .55-.45 1-1 1s-1-.45-1-1 .45-1 1-1 1 .45 1 1zm0 7.95c0 .56-.45 1-1 1s-1-.44-1-1c0-.54.45-1 1-1s1 .46 1 1zm0 7.96c0 .55-.45 1-1 1s-1-.45-1-1 .45-1 1-1 1 .45 1 1zm0 7.95c0 .57-.45 1-1 1s-1-.43-1-1c0-.54.45-1 1-1s1 .46 1 1zm0 7.97c0 .55-.45 1-1 1s-1-.45-1-1c0-.56.45-1 1-1s1 .44 1 1zm0 7.95c0 .55-.45 1-1 1s-1-.45-1-1 .45-1 1-1 1 .45 1 1zm0 7.95c0 .55-.45 1-1 1s-1-.45-1-1 .45-1 1-1 1 .45 1 1zm0 7.95c0 .55-.45 1-1 1s-1-.45-1-1 .45-1 1-1 1 .45 1 1zm0 7.95c0 .56-.45 1-1 1s-1-.44-1-1c0-.55.45-1 1-1s1 .45 1 1zm0 7.96c0 .55-.45 1-1 1s-1-.45-1-1c0-.56.45-1 1-1s1 .44 1 1zm0 7.95c0 .55-.45 1-1 1s-1-.45-1-1c0-.56.45-1 1-1s1 .44 1 1zm0 7.95c0 .55-.45 1-1 1s-1-.45-1-1 .45-1 1-1 1 .45 1 1zm0 7.95c0 .55-.45 1-1 1s-1-.45-1-1 .45-1 1-1 1 .45 1 1zm0 7.95c0 .55-.45 1-1 1s-1-.45-1-1 .45-1 1-1 1 .45 1 1zm0 7.95c0 .56-.45 1-1 1s-1-.44-1-1c0-.55.45-1 1-1s1 .45 1 1zm0 7.96c0 .55-.45 1-1 1s-1-.45-1-1c0-.56.45-1 1-1s1 .44 1 1zm0 7.95c0 .54-.45 1-1 1s-1-.46-1-1c0-.56.45-1 1-1s1 .44 1 1zm0 7.94c0 .55-.45 1-1 1s-1-.45-1-1 .45-1 1-1 1 .45 1 1zm0 7.95c0 .54-.45 1-1 1s-1-.46-1-1c0-.56.45-1 1-1s1 .44 1 1zm0 7.94c0 .56-.45 1-1 1s-1-.44-1-1c0-.55.45-1 1-1s1 .45 1 1zm0 7.96c0 .55-.45 1-1 1s-1-.45-1-1c0-.56.45-1 1-1s1 .44 1 1zm0 7.95c0 .55-.45 1-1 1s-1-.45-1-1c0-.56.45-1 1-1s1 .44 1 1zm0 7.95c0 .55-.45 1-1 1s-1-.45-1-1 .45-1 1-1 1 .45 1 1zm0 7.95c0 .55-.45 1-1 1s-1-.45-1-1 .45-1 1-1 1 .45 1 1zm0 7.95c0 .55-.45 1-1 1s-1-.45-1-1 .45-1 1-1 1 .45 1 1zm0 7.95c0 .56-.45 1-1 1s-1-.44-1-1c0-.55.45-1 1-1s1 .45 1 1zm0 7.96c0 .56-.45 1-1 1s-1-.44-1-1c0-.55.45-1 1-1s1 .45 1 1zm0 7.96c0 .55-.45 1-1 1s-1-.45-1-1 .45-1 1-1 1 .45 1 1zm0 7.95c0 .56-.45 1-1 1s-1-.44-1-1c0-.54.45-1 1-1s1 .46 1 1zm0 7.96c0 .55-.45 1-1 1s-1-.45-1-1 .45-1 1-1 1 .45 1 1zm0 7.95c0 .57-.45 1-1 1s-1-.43-1-1c0-.54.45-1 1-1s1 .46 1 1zm0 7.97c0 .55-.45 1-1 1s-1-.45-1-1c0-.56.45-1 1-1s1 .44 1 1zm0 7.95c0 .55-.45 1-1 1s-1-.45-1-1c0-.56.45-1 1-1s1 .44 1 1zm0 7.95c0 .55-.45 1-1 1s-1-.45-1-1 .45-1 1-1 1 .45 1 1zm0 7.95c0 .55-.45 1-1 1s-1-.45-1-1 .45-1 1-1 1 .45 1 1zm0 7.95c0 .55-.45 1-1 1s-1-.45-1-1 .45-1 1-1 1 .45 1 1zm0 7.95c0 .56-.45 1-1 1s-1-.44-1-1c0-.55.45-1 1-1s1 .45 1 1zm0 7.96c0 .55-.45 1-1 1s-1-.45-1-1c0-.56.45-1 1-1s1 .44 1 1zm0 7.95c0 .55-.45 1-1 1s-1-.45-1-1 .45-1 1-1 1 .45 1 1zm0 7.95c0 .55-.45 1-1 1s-1-.45-1-1 .45-1 1-1 1 .45 1 1zm0 7.95c0 .55-.45 1-1 1s-1-.45-1-1 .45-1 1-1 1 .45 1 1zm0 7.95c0 .56-.45 1-1 1s-1-.44-1-1c0-.55.45-1 1-1s1 .45 1 1zm0 7.95c0 .56-.45 1-1 1s-1-.44-1-1c0-.55.45-1 1-1s1 .45 1 1zm0 7.96c0 .54-.45 1-1 1s-1-.46-1-1c0-.57.45-1 1-1s1 .43 1 1zm0 7.94c0 .55-.45 1-1 1s-1-.45-1-1 .45-1 1-1 1 .45 1 1zm0 7.95c0 .54-.45 1-1 1s-1-.46-1-1c0-.56.45-1 1-1s1 .44 1 1zm0 7.94c0 .55-.45 1-1 1s-1-.45-1-1 .45-1 1-1 1 .45 1 1zm0 7.95c0 .55-.45 1-1 1s-1-.45-1-1c0-.56.45-1 1-1s1 .44 1 1zm0 7.95c0 .55-.45 1-1 1s-1-.45-1-1c0-.56.45-1 1-1s1 .44 1 1zm0 7.95c0 .55-.45 1-1 1s-1-.45-1-1 .45-1 1-1 1 .45 1 1zm0 7.95c0 .55-.45 1-1 1s-1-.45-1-1 .45-1 1-1 1 .45 1 1zm0 7.95c0 .55-.45 1-1 1s-1-.45-1-1 .45-1 1-1 1 .45 1 1zm0 7.95c0 .56-.45 1-1 1s-1-.44-1-1c0-.55.45-1 1-1s1 .45 1 1zm0 7.95c0 .56-.45 1-1 1s-1-.44-1-1c0-.55.45-1 1-1s1 .45 1 1zm0 7.96c0 .55-.45 1-1 1s-1-.45-1-1c0-.56.45-1 1-1s1 .44 1 1zm0 7.95c0 .56-.45 1-1 1s-1-.44-1-1c0-.54.45-1 1-1s1 .46 1 1zm0 7.96c0 .55-.45 1-1 1s-1-.45-1-1 .45-1 1-1 1 .45 1 1zm0 7.95c0 .56-.45 1-1 1s-1-.44-1-1c0-.54.45-1 1-1s1 .46 1 1zm0 7.96c0 .56-.45 1-1 1s-1-.44-1-1c0-.55.45-1 1-1s1 .45 1 1zm0 7.96c0 .55-.45 1-1 1s-1-.45-1-1c0-.56.45-1 1-1s1 .44 1 1zm0 7.95c0 .55-.45 1-1 1s-1-.45-1-1 .45-1 1-1 1 .45 1 1zm0 7.95c0 .55-.45 1-1 1s-1-.45-1-1 .45-1 1-1 1 .45 1 1zm0 7.95c0 .55-.45 1-1 1s-1-.45-1-1 .45-1 1-1 1 .45 1 1zm0 7.95c0 .56-.45 1-1 1s-1-.44-1-1c0-.55.45-1 1-1s1 .45 1 1zm0 7.95c0 .56-.45 1-1 1s-1-.44-1-1c0-.55.45-1 1-1s1 .45 1 1zm0 7.96c0 .55-.45 1-1 1s-1-.45-1-1c0-.56.45-1 1-1s1 .44 1 1zm0 7.95c0 .55-.45 1-1 1s-1-.45-1-1 .45-1 1-1 1 .45 1 1zm0 7.95c0 .55-.45 1-1 1s-1-.45-1-1 .45-1 1-1 1 .45 1 1zm0 7.95c0 .55-.45 1-1 1s-1-.45-1-1 .45-1 1-1 1 .45 1 1zm0 7.95c0 .56-.45 1-1 1s-1-.44-1-1c0-.55.45-1 1-1s1 .45 1 1zm0 7.96c0 .54-.45 1-1 1s-1-.46-1-1c0-.57.45-1 1-1s1 .43 1 1zm0 7.94c0 .55-.45 1-1 1s-1-.45-1-1 .45-1 1-1 1 .45 1 1zm0 7.95c0 .54-.45 1-1 1s-1-.46-1-1c0-.56.45-1 1-1s1 .44 1 1zm0 7.94c0 .55-.45 1-1 1s-1-.45-1-1 .45-1 1-1 1 .45 1 1zm0 7.95c0 .55-.45 1-1 1s-1-.45-1-1c0-.56.45-1 1-1s1 .44 1 1zm0 7.94c0 .56-.45 1-1 1s-1-.44-1-1c0-.55.45-1 1-1s1 .45 1 1zm0 7.96c0 .55-.45 1-1 1s-1-.45-1-1c0-.56.45-1 1-1s1 .44 1 1zm0 7.95c0 .55-.45 1-1 1s-1-.45-1-1 .45-1 1-1 1 .45 1 1zm0 7.95c0 .55-.45 1-1 1s-1-.45-1-1 .45-1 1-1 1 .45 1 1zm-1.1 7.74c0 .55-.46 1-1 1-.57 0-1-.45-1-1s.43-1 1-1c.54 0 1 .45 1 1zm-2.96 7.23c0 .56-.45 1-1 1s-1-.44-1-1c0-.55.45-1 1-1s1 .45 1 1zm-4.8 6.18c0 .56-.44 1-1 1-.54 0-1-.44-1-1 0-.55.46-1 1-1 .56 0 1 .45 1 1zm-6.18 4.76c0 .57-.45 1-1 1s-1-.43-1-1c0-.54.45-1 1-1s1 .46 1 1zm-7.2 3.04c0 .55-.46 1-1 1-.56 0-1-.45-1-1 0-.56.44-1 1-1 .54 0 1 .44 1 1zM551 740c0 .55-.45 1-1 1s-1-.45-1-1 .45-1 1-1 1 .45 1 1zm-8 0c0 .55-.45 1-1 1s-1-.45-1-1 .45-1 1-1 1 .45 1 1zm-8 0c0 .55-.45 1-1 1s-1-.45-1-1 .45-1 1-1 1 .45 1 1zm-8 0c0 .55-.45 1-1 1s-1-.45-1-1 .45-1 1-1 1 .45 1 1zm-8 0c0 .55-.45 1-1 1s-1-.45-1-1 .45-1 1-1 1 .45 1 1zm-8 0c0 .55-.45 1-1 1s-1-.45-1-1 .45-1 1-1 1 .45 1 1zm-8 0c0 .55-.45 1-1 1s-1-.45-1-1 .45-1 1-1 1 .45 1 1zm-8 0c0 .55-.45 1-1 1s-1-.45-1-1 .45-1 1-1 1 .45 1 1zm-8 0c0 .55-.45 1-1 1s-1-.45-1-1 .45-1 1-1 1 .45 1 1zm-8 0c0 .55-.45 1-1 1s-1-.45-1-1 .45-1 1-1 1 .45 1 1zm-8 0c0 .55-.45 1-1 1s-1-.45-1-1 .45-1 1-1 1 .45 1 1zm-8 0c0 .55-.45 1-1 1s-1-.45-1-1 .45-1 1-1 1 .45 1 1zm-8 0c0 .55-.45 1-1 1s-1-.45-1-1 .45-1 1-1 1 .45 1 1zm-8 0c0 .55-.45 1-1 1s-1-.45-1-1 .45-1 1-1 1 .45 1 1zm-8 0c0 .55-.45 1-1 1s-1-.45-1-1 .45-1 1-1 1 .45 1 1zm-8 0c0 .55-.45 1-1 1s-1-.45-1-1 .45-1 1-1 1 .45 1 1zm-8 0c0 .55-.45 1-1 1s-1-.45-1-1 .45-1 1-1 1 .45 1 1zm-8 0c0 .55-.45 1-1 1s-1-.45-1-1 .45-1 1-1 1 .45 1 1zm-8 0c0 .55-.45 1-1 1s-1-.45-1-1 .45-1 1-1 1 .45 1 1zm-8 0c0 .55-.45 1-1 1s-1-.45-1-1 .45-1 1-1 1 .45 1 1zm-8 0c0 .55-.45 1-1 1s-1-.45-1-1 .45-1 1-1 1 .45 1 1zm-8 0c0 .55-.45 1-1 1s-1-.45-1-1 .45-1 1-1 1 .45 1 1zm-8 0c0 .55-.45 1-1 1s-1-.45-1-1 .45-1 1-1 1 .45 1 1zm-8 0c0 .55-.45 1-1 1s-1-.45-1-1 .45-1 1-1 1 .45 1 1zm-8 0c0 .55-.45 1-1 1s-1-.45-1-1 .45-1 1-1 1 .45 1 1zm-8 0c0 .55-.45 1-1 1s-1-.45-1-1 .45-1 1-1 1 .45 1 1zm-8 0c0 .55-.45 1-1 1s-1-.45-1-1 .45-1 1-1 1 .45 1 1zm-8 0c0 .55-.45 1-1 1s-1-.45-1-1 .45-1 1-1 1 .45 1 1zm-8 0c0 .55-.45 1-1 1s-1-.45-1-1 .45-1 1-1 1 .45 1 1zm-8 0c0 .55-.45 1-1 1s-1-.45-1-1 .45-1 1-1 1 .45 1 1zm-8 0c0 .55-.45 1-1 1s-1-.45-1-1 .45-1 1-1 1 .45 1 1zm-8 0c0 .55-.45 1-1 1s-1-.45-1-1 .45-1 1-1 1 .45 1 1zm-8 0c0 .55-.45 1-1 1s-1-.45-1-1 .45-1 1-1 1 .45 1 1zm-8 0c0 .55-.45 1-1 1s-1-.45-1-1 .45-1 1-1 1 .45 1 1zm-8 0c0 .55-.45 1-1 1s-1-.45-1-1 .45-1 1-1 1 .45 1 1zm-8 0c0 .55-.45 1-1 1s-1-.45-1-1 .45-1 1-1 1 .45 1 1zm-8 0c0 .55-.45 1-1 1s-1-.45-1-1 .45-1 1-1 1 .45 1 1zm-8 0c0 .55-.45 1-1 1s-1-.45-1-1 .45-1 1-1 1 .45 1 1zm-8 0c0 .55-.45 1-1 1s-1-.45-1-1 .45-1 1-1 1 .45 1 1zm-8 0c0 .55-.45 1-1 1s-1-.45-1-1 .45-1 1-1 1 .45 1 1zm-8 0c0 .55-.45 1-1 1s-1-.45-1-1 .45-1 1-1 1 .45 1 1zm-8 0c0 .55-.45 1-1 1s-1-.45-1-1 .45-1 1-1 1 .45 1 1zm-8 0c0 .55-.45 1-1 1s-1-.45-1-1 .45-1 1-1 1 .45 1 1zm-8 0c0 .55-.45 1-1 1s-1-.45-1-1 .45-1 1-1 1 .45 1 1zm-8 0c0 .55-.45 1-1 1s-1-.45-1-1 .45-1 1-1 1 .45 1 1zm-8 0c0 .55-.45 1-1 1s-1-.45-1-1 .45-1 1-1 1 .45 1 1zm-8 0c0 .55-.45 1-1 1s-1-.45-1-1 .45-1 1-1 1 .45 1 1zm-8 0c0 .55-.45 1-1 1s-1-.45-1-1 .45-1 1-1 1 .45 1 1zm-8 0c0 .55-.45 1-1 1s-1-.45-1-1 .45-1 1-1 1 .45 1 1zm-8 0c0 .55-.45 1-1 1s-1-.45-1-1 .45-1 1-1 1 .45 1 1zm-8 0c0 .55-.45 1-1 1s-1-.45-1-1 .45-1 1-1 1 .45 1 1zm-8 0c0 .55-.45 1-1 1s-1-.45-1-1 .45-1 1-1 1 .45 1 1zm-8 0c0 .55-.45 1-1 1s-1-.45-1-1 .45-1 1-1 1 .45 1 1zm-8 0c0 .55-.45 1-1 1s-1-.45-1-1 .45-1 1-1 1 .45 1 1zm-8 0c0 .55-.45 1-1 1s-1-.45-1-1 .45-1 1-1 1 .45 1 1zm-8 0c0 .55-.45 1-1 1s-1-.45-1-1 .45-1 1-1 1 .45 1 1zm-8 0c0 .55-.45 1-1 1s-1-.45-1-1 .45-1 1-1 1 .45 1 1zm-8 0c0 .55-.45 1-1 1s-1-.45-1-1 .45-1 1-1 1 .45 1 1zm-8 0c0 .55-.45 1-1 1s-1-.45-1-1 .45-1 1-1 1 .45 1 1zm-8 0c0 .55-.45 1-1 1s-1-.45-1-1 .45-1 1-1 1 .45 1 1zm-8 0c0 .55-.45 1-1 1s-1-.45-1-1 .45-1 1-1 1 .45 1 1zm-8 0c0 .55-.45 1-1 1s-1-.45-1-1 .45-1 1-1 1 .45 1 1zm-8 0c0 .55-.45 1-1 1s-1-.45-1-1 .45-1 1-1 1 .45 1 1zm-8 0c0 .55-.45 1-1 1s-1-.45-1-1 .45-1 1-1 1 .45 1 1zm-8 0c0 .55-.45 1-1 1s-1-.45-1-1 .45-1 1-1 1 .45 1 1zm-8 0c0 .55-.45 1-1 1s-1-.45-1-1 .45-1 1-1 1 .45 1 1zm-7.74-1.1c0 .54-.45 1-1 1s-1-.46-1-1c0-.57.45-1 1-1s1 .43 1 1zm-7.23-2.96c0 .55-.45 1-1 1-.56 0-1-.45-1-1s.44-1 1-1c.55 0 1 .45 1 1zm-6.18-4.8c0 .56-.45 1-1 1-.56 0-1-.44-1-1 0-.54.44-1 1-1 .55 0 1 .46 1 1zm-4.76-6.18c0 .55-.46 1-1 1-.57 0-1-.45-1-1s.43-1 1-1c.54 0 1 .45 1 1zm-3.04-7.2c0 .54-.44 1-1 1-.55 0-1-.46-1-1 0-.56.45-1 1-1 .56 0 1 .44 1 1zM1 710c0 .55-.45 1-1 1s-1-.45-1-1 .45-1 1-1 1 .45 1 1zm0-7.95c0 .55-.45 1-1 1s-1-.45-1-1 .45-1 1-1 1 .45 1 1zm0-7.95c0 .55-.45 1-1 1s-1-.45-1-1c0-.56.45-1 1-1s1 .44 1 1zm0-7.96c0 .56-.45 1-1 1s-1-.44-1-1c0-.55.45-1 1-1s1 .45 1 1zm0-7.95c0 .55-.45 1-1 1s-1-.45-1-1c0-.56.45-1 1-1s1 .44 1 1zm0-7.96c0 .55-.45 1-1 1s-1-.45-1-1 .45-1 1-1 1 .45 1 1zm0-7.95c0 .54-.45 1-1 1s-1-.46-1-1c0-.56.45-1 1-1s1 .44 1 1zm0-7.96c0 .55-.45 1-1 1s-1-.45-1-1 .45-1 1-1 1 .45 1 1zm0-7.95c0 .54-.45 1-1 1s-1-.46-1-1c0-.57.45-1 1-1s1 .43 1 1zm0-7.97c0 .56-.45 1-1 1s-1-.44-1-1c0-.55.45-1 1-1s1 .45 1 1zm0-7.95c0 .55-.45 1-1 1s-1-.45-1-1 .45-1 1-1 1 .45 1 1zm0-7.95c0 .55-.45 1-1 1s-1-.45-1-1 .45-1 1-1 1 .45 1 1zm0-7.95c0 .55-.45 1-1 1s-1-.45-1-1 .45-1 1-1 1 .45 1 1zm0-7.95c0 .55-.45 1-1 1s-1-.45-1-1c0-.56.45-1 1-1s1 .44 1 1zm0-7.96c0 .56-.45 1-1 1s-1-.44-1-1c0-.55.45-1 1-1s1 .45 1 1zm0-7.95c0 .56-.45 1-1 1s-1-.44-1-1c0-.55.45-1 1-1s1 .45 1 1zm0-7.95c0 .55-.45 1-1 1s-1-.45-1-1 .45-1 1-1 1 .45 1 1zm0-7.95c0 .55-.45 1-1 1s-1-.45-1-1 .45-1 1-1 1 .45 1 1zm0-7.95c0 .55-.45 1-1 1s-1-.45-1-1 .45-1 1-1 1 .45 1 1zm0-7.95c0 .55-.45 1-1 1s-1-.45-1-1c0-.56.45-1 1-1s1 .44 1 1zm0-7.96c0 .56-.45 1-1 1s-1-.44-1-1c0-.55.45-1 1-1s1 .45 1 1zM1 543c0 .56-.45 1-1 1s-1-.44-1-1c0-.54.45-1 1-1s1 .46 1 1zm0-7.94c0 .55-.45 1-1 1s-1-.45-1-1 .45-1 1-1 1 .45 1 1zm0-7.95c0 .56-.45 1-1 1s-1-.44-1-1c0-.54.45-1 1-1s1 .46 1 1zm0-7.94c0 .55-.45 1-1 1s-1-.45-1-1c0-.56.45-1 1-1s1 .44 1 1zm0-7.96c0 .56-.45 1-1 1s-1-.44-1-1c0-.55.45-1 1-1s1 .45 1 1zm0-7.95c0 .56-.45 1-1 1s-1-.44-1-1c0-.55.45-1 1-1s1 .45 1 1zm0-7.95c0 .55-.45 1-1 1s-1-.45-1-1 .45-1 1-1 1 .45 1 1zm0-7.95c0 .55-.45 1-1 1s-1-.45-1-1 .45-1 1-1 1 .45 1 1zm0-7.95c0 .55-.45 1-1 1s-1-.45-1-1 .45-1 1-1 1 .45 1 1zm0-7.95c0 .55-.45 1-1 1s-1-.45-1-1c0-.56.45-1 1-1s1 .44 1 1zm0-7.96c0 .55-.45 1-1 1s-1-.45-1-1c0-.56.45-1 1-1s1 .44 1 1zm0-7.96c0 .55-.45 1-1 1s-1-.45-1-1 .45-1 1-1 1 .45 1 1zm0-7.95c0 .54-.45 1-1 1s-1-.46-1-1c0-.56.45-1 1-1s1 .44 1 1zm0-7.96c0 .55-.45 1-1 1s-1-.45-1-1 .45-1 1-1 1 .45 1 1zm0-7.95c0 .54-.45 1-1 1s-1-.46-1-1c0-.57.45-1 1-1s1 .43 1 1zm0-7.97c0 .56-.45 1-1 1s-1-.44-1-1c0-.55.45-1 1-1s1 .45 1 1zm0-7.95c0 .56-.45 1-1 1s-1-.44-1-1c0-.55.45-1 1-1s1 .45 1 1zm0-7.95c0 .55-.45 1-1 1s-1-.45-1-1 .45-1 1-1 1 .45 1 1zm0-7.95c0 .55-.45 1-1 1s-1-.45-1-1 .45-1 1-1 1 .45 1 1zm0-7.95c0 .55-.45 1-1 1s-1-.45-1-1 .45-1 1-1 1 .45 1 1zm0-7.95c0 .55-.45 1-1 1s-1-.45-1-1c0-.56.45-1 1-1s1 .44 1 1zm0-7.96c0 .56-.45 1-1 1s-1-.44-1-1c0-.55.45-1 1-1s1 .45 1 1zm0-7.95c0 .55-.45 1-1 1s-1-.45-1-1 .45-1 1-1 1 .45 1 1zm0-7.95c0 .55-.45 1-1 1s-1-.45-1-1 .45-1 1-1 1 .45 1 1zm0-7.95c0 .55-.45 1-1 1s-1-.45-1-1 .45-1 1-1 1 .45 1 1zm0-7.95c0 .55-.45 1-1 1s-1-.45-1-1c0-.56.45-1 1-1s1 .44 1 1zm0-7.95c0 .55-.45 1-1 1s-1-.45-1-1c0-.56.45-1 1-1s1 .44 1 1zm0-7.96c0 .57-.45 1-1 1s-1-.43-1-1c0-.54.45-1 1-1s1 .46 1 1zm0-7.94c0 .55-.45 1-1 1s-1-.45-1-1 .45-1 1-1 1 .45 1 1zm0-7.95c0 .56-.45 1-1 1s-1-.44-1-1c0-.54.45-1 1-1s1 .46 1 1zm0-7.94c0 .55-.45 1-1 1s-1-.45-1-1 .45-1 1-1 1 .45 1 1zm0-7.95c0 .56-.45 1-1 1s-1-.44-1-1c0-.55.45-1 1-1s1 .45 1 1zm0-7.95c0 .56-.45 1-1 1s-1-.44-1-1c0-.55.45-1 1-1s1 .45 1 1zm0-7.95c0 .55-.45 1-1 1s-1-.45-1-1 .45-1 1-1 1 .45 1 1zm0-7.95c0 .55-.45 1-1 1s-1-.45-1-1 .45-1 1-1 1 .45 1 1zm0-7.95c0 .55-.45 1-1 1s-1-.45-1-1 .45-1 1-1 1 .45 1 1zm0-7.95c0 .55-.45 1-1 1s-1-.45-1-1c0-.56.45-1 1-1s1 .44 1 1zm0-7.95c0 .55-.45 1-1 1s-1-.45-1-1c0-.56.45-1 1-1s1 .44 1 1zm0-7.96c0 .56-.45 1-1 1s-1-.44-1-1c0-.55.45-1 1-1s1 .45 1 1zm0-7.95c0 .54-.45 1-1 1s-1-.46-1-1c0-.56.45-1 1-1s1 .44 1 1zm0-7.96c0 .55-.45 1-1 1s-1-.45-1-1 .45-1 1-1 1 .45 1 1zM1 217c0 .54-.45 1-1 1s-1-.46-1-1c0-.56.45-1 1-1s1 .44 1 1zm0-7.96c0 .55-.45 1-1 1s-1-.45-1-1c0-.56.45-1 1-1s1 .44 1 1zm0-7.96c0 .56-.45 1-1 1s-1-.44-1-1c0-.55.45-1 1-1s1 .45 1 1zm0-7.95c0 .55-.45 1-1 1s-1-.45-1-1 .45-1 1-1 1 .45 1 1zm0-7.95c0 .55-.45 1-1 1s-1-.45-1-1 .45-1 1-1 1 .45 1 1zm0-7.95c0 .55-.45 1-1 1s-1-.45-1-1 .45-1 1-1 1 .45 1 1zm0-7.95c0 .55-.45 1-1 1s-1-.45-1-1c0-.56.45-1 1-1s1 .44 1 1zm0-7.95c0 .55-.45 1-1 1s-1-.45-1-1c0-.56.45-1 1-1s1 .44 1 1zm0-7.96c0 .56-.45 1-1 1s-1-.44-1-1c0-.55.45-1 1-1s1 .45 1 1zm0-7.95c0 .55-.45 1-1 1s-1-.45-1-1 .45-1 1-1 1 .45 1 1zm0-7.95c0 .55-.45 1-1 1s-1-.45-1-1 .45-1 1-1 1 .45 1 1zm0-7.95c0 .55-.45 1-1 1s-1-.45-1-1 .45-1 1-1 1 .45 1 1zm0-7.95c0 .55-.45 1-1 1s-1-.45-1-1c0-.56.45-1 1-1s1 .44 1 1zm0-7.96c0 .57-.45 1-1 1s-1-.43-1-1c0-.54.45-1 1-1s1 .46 1 1zm0-7.94c0 .55-.45 1-1 1s-1-.45-1-1 .45-1 1-1 1 .45 1 1zm0-7.95c0 .56-.45 1-1 1s-1-.44-1-1c0-.54.45-1 1-1s1 .46 1 1zm0-7.94c0 .55-.45 1-1 1s-1-.45-1-1 .45-1 1-1 1 .45 1 1zm0-7.95c0 .56-.45 1-1 1s-1-.44-1-1c0-.55.45-1 1-1s1 .45 1 1zm0-7.94c0 .55-.45 1-1 1s-1-.45-1-1c0-.56.45-1 1-1s1 .44 1 1zm0-7.96c0 .56-.45 1-1 1s-1-.44-1-1c0-.55.45-1 1-1s1 .45 1 1zm0-7.95c0 .55-.45 1-1 1s-1-.45-1-1 .45-1 1-1 1 .45 1 1zM1 50c0 .55-.45 1-1 1s-1-.45-1-1 .45-1 1-1 1 .45 1 1zm1.1-7.74c0 .55-.43 1-1 1-.54 0-1-.45-1-1s.46-1 1-1c.57 0 1 .45 1 1zm2.96-7.23c0 .55-.45 1-1 1s-1-.45-1-1c0-.56.45-1 1-1s1 .44 1 1zm4.8-6.18c0 .55-.46 1-1 1-.56 0-1-.45-1-1 0-.56.44-1 1-1 .54 0 1 .44 1 1zm6.18-4.76c0 .54-.45 1-1 1s-1-.46-1-1c0-.57.45-1 1-1s1 .43 1 1zm7.2-3.04c0 .56-.44 1-1 1-.54 0-1-.44-1-1 0-.55.46-1 1-1 .56 0 1 .45 1 1zM31 20c0 .55-.45 1-1 1s-1-.45-1-1 .45-1 1-1 1 .45 1 1zm8 0c0 .55-.45 1-1 1s-1-.45-1-1 .45-1 1-1 1 .45 1 1zm8 0c0 .55-.45 1-1 1s-1-.45-1-1 .45-1 1-1 1 .45 1 1zm8 0c0 .55-.45 1-1 1s-1-.45-1-1 .45-1 1-1 1 .45 1 1zm8 0c0 .55-.45 1-1 1s-1-.45-1-1 .45-1 1-1 1 .45 1 1zm8 0c0 .55-.45 1-1 1s-1-.45-1-1 .45-1 1-1 1 .45 1 1zm8 0c0 .55-.45 1-1 1s-1-.45-1-1 .45-1 1-1 1 .45 1 1zm8 0c0 .55-.45 1-1 1s-1-.45-1-1 .45-1 1-1 1 .45 1 1zm8 0c0 .55-.45 1-1 1s-1-.45-1-1 .45-1 1-1 1 .45 1 1zm8 0c0 .55-.45 1-1 1s-1-.45-1-1 .45-1 1-1 1 .45 1 1zm8 0c0 .55-.45 1-1 1s-1-.45-1-1 .45-1 1-1 1 .45 1 1zm8 0c0 .55-.45 1-1 1s-1-.45-1-1 .45-1 1-1 1 .45 1 1zm8 0c0 .55-.45 1-1 1s-1-.45-1-1 .45-1 1-1 1 .45 1 1zm8 0c0 .55-.45 1-1 1s-1-.45-1-1 .45-1 1-1 1 .45 1 1zm8 0c0 .55-.45 1-1 1s-1-.45-1-1 .45-1 1-1 1 .45 1 1zm8 0c0 .55-.45 1-1 1s-1-.45-1-1 .45-1 1-1 1 .45 1 1zm8 0c0 .55-.45 1-1 1s-1-.45-1-1 .45-1 1-1 1 .45 1 1zm8 0c0 .55-.45 1-1 1s-1-.45-1-1 .45-1 1-1 1 .45 1 1zm8 0c0 .55-.45 1-1 1s-1-.45-1-1 .45-1 1-1 1 .45 1 1zm8 0c0 .55-.45 1-1 1s-1-.45-1-1 .45-1 1-1 1 .45 1 1zm8 0c0 .55-.45 1-1 1s-1-.45-1-1 .45-1 1-1 1 .45 1 1zm8 0c0 .55-.45 1-1 1s-1-.45-1-1 .45-1 1-1 1 .45 1 1zm8 0c0 .55-.45 1-1 1s-1-.45-1-1 .45-1 1-1 1 .45 1 1zm8 0c0 .55-.45 1-1 1s-1-.45-1-1 .45-1 1-1 1 .45 1 1zm8 0c0 .55-.45 1-1 1s-1-.45-1-1 .45-1 1-1 1 .45 1 1zm8 0c0 .55-.45 1-1 1s-1-.45-1-1 .45-1 1-1 1 .45 1 1zm8 0c0 .55-.45 1-1 1s-1-.45-1-1 .45-1 1-1 1 .45 1 1zm8 0c0 .55-.45 1-1 1s-1-.45-1-1 .45-1 1-1 1 .45 1 1zm8 0c0 .55-.45 1-1 1s-1-.45-1-1 .45-1 1-1 1 .45 1 1zm8 0c0 .55-.45 1-1 1s-1-.45-1-1 .45-1 1-1 1 .45 1 1zm8 0c0 .55-.45 1-1 1s-1-.45-1-1 .45-1 1-1 1 .45 1 1zm8 0c0 .55-.45 1-1 1s-1-.45-1-1 .45-1 1-1 1 .45 1 1zm8 0c0 .55-.45 1-1 1s-1-.45-1-1 .45-1 1-1 1 .45 1 1zm8 0c0 .55-.45 1-1 1s-1-.45-1-1 .45-1 1-1 1 .45 1 1zm8 0c0 .55-.45 1-1 1s-1-.45-1-1 .45-1 1-1 1 .45 1 1zm8 0c0 .55-.45 1-1 1s-1-.45-1-1 .45-1 1-1 1 .45 1 1zm8 0c0 .55-.45 1-1 1s-1-.45-1-1 .45-1 1-1 1 .45 1 1zm8 0c0 .55-.45 1-1 1s-1-.45-1-1 .45-1 1-1 1 .45 1 1zm8 0c0 .55-.45 1-1 1s-1-.45-1-1 .45-1 1-1 1 .45 1 1zm8 0c0 .55-.45 1-1 1s-1-.45-1-1 .45-1 1-1 1 .45 1 1zm8 0c0 .55-.45 1-1 1s-1-.45-1-1 .45-1 1-1 1 .45 1 1zm8 0c0 .55-.45 1-1 1s-1-.45-1-1 .45-1 1-1 1 .45 1 1zm8 0c0 .55-.45 1-1 1s-1-.45-1-1 .45-1 1-1 1 .45 1 1zm8 0c0 .55-.45 1-1 1s-1-.45-1-1 .45-1 1-1 1 .45 1 1zm8 0c0 .55-.45 1-1 1s-1-.45-1-1 .45-1 1-1 1 .45 1 1zm8 0c0 .55-.45 1-1 1s-1-.45-1-1 .45-1 1-1 1 .45 1 1zm8 0c0 .55-.45 1-1 1s-1-.45-1-1 .45-1 1-1 1 .45 1 1zm8 0c0 .55-.45 1-1 1s-1-.45-1-1 .45-1 1-1 1 .45 1 1zm8 0c0 .55-.45 1-1 1s-1-.45-1-1 .45-1 1-1 1 .45 1 1zm8 0c0 .55-.45 1-1 1s-1-.45-1-1 .45-1 1-1 1 .45 1 1zm8 0c0 .55-.45 1-1 1s-1-.45-1-1 .45-1 1-1 1 .45 1 1zm8 0c0 .55-.45 1-1 1s-1-.45-1-1 .45-1 1-1 1 .45 1 1zm8 0c0 .55-.45 1-1 1s-1-.45-1-1 .45-1 1-1 1 .45 1 1zm8 0c0 .55-.45 1-1 1s-1-.45-1-1 .45-1 1-1 1 .45 1 1zm8 0c0 .55-.45 1-1 1s-1-.45-1-1 .45-1 1-1 1 .45 1 1zm8 0c0 .55-.45 1-1 1s-1-.45-1-1 .45-1 1-1 1 .45 1 1zm8 0c0 .55-.45 1-1 1s-1-.45-1-1 .45-1 1-1 1 .45 1 1zm8 0c0 .55-.45 1-1 1s-1-.45-1-1 .45-1 1-1 1 .45 1 1zm8 0c0 .55-.45 1-1 1s-1-.45-1-1 .45-1 1-1 1 .45 1 1zm8 0c0 .55-.45 1-1 1s-1-.45-1-1 .45-1 1-1 1 .45 1 1zm8 0c0 .55-.45 1-1 1s-1-.45-1-1 .45-1 1-1 1 .45 1 1zm8 0c0 .55-.45 1-1 1s-1-.45-1-1 .45-1 1-1 1 .45 1 1zm8 0c0 .55-.45 1-1 1s-1-.45-1-1 .45-1 1-1 1 .45 1 1zm8 0c0 .55-.45 1-1 1s-1-.45-1-1 .45-1 1-1 1 .45 1 1zm8 0c0 .55-.45 1-1 1s-1-.45-1-1 .45-1 1-1 1 .45 1 1zm8 0c0 .55-.45 1-1 1s-1-.45-1-1 .45-1 1-1 1 .45 1 1z"/><path d="M-60 23c0-2.76 2.24-5 5-5h230c2.76 0 5 2.24 5 5v57.2c0 2.76-2.24 5-5 5H-55c-2.76 0-5-2.24-5-5z" fill="none"/><use xlink:href="#j" transform="matrix(1,0,0,1,-60,18) translate(80.88888888888889 39.333333333333336)"/><path d="M860 33c0-2.76 2.24-5 5-5h190c2.76 0 5 2.24 5 5v190c0 2.76-2.24 5-5 5H865c-2.76 0-5-2.24-5-5z" stroke="#0d1f54" stroke-width="2" fill="none"/><path d="M873 103c0-2.76 2.24-5 5-5h170c2.76 0 5 2.24 5 5v50c0 2.76-2.24 5-5 5H878c-2.76 0-5-2.24-5-5z" fill="none"/><use xlink:href="#k" transform="matrix(1,0,0,1,873,98) translate(17.31481481481481 34.44444444444444)"/><path d="M900 30c0 5.52-4.48 10-10 10s-10-4.48-10-10 4.48-10 10-10 10 4.48 10 10zM1038 30c0 5.52-4.48 10-10 10s-10-4.48-10-10 4.48-10 10-10 10 4.48 10 10z" stroke="#0d1f54" stroke-width="2"/><path d="M857 30c0-2.76 2.24-5 5-5h85c2.76 0 5 2.24 5 5v50c0 2.76-2.24 5-5 5h-85c-2.76 0-5-2.24-5-5z" fill="none"/><use xlink:href="#l" transform="matrix(1,0,0,1,857,25) translate(8.024999999999999 33.6)"/><path d="M980.5 30c0-2.76 2.24-5 5-5h85c2.76 0 5 2.24 5 5v50c0 2.76-2.24 5-5 5h-85c-2.76 0-5-2.24-5-5z" fill="none"/><use xlink:href="#m" transform="matrix(1,0,0,1,980.5,25) translate(20 33.6)"/><path d="M618.5 33c0-2.76 2.24-5 5-5h190c2.76 0 5 2.24 5 5v190c0 2.76-2.24 5-5 5h-190c-2.76 0-5-2.24-5-5z" stroke="#0d1f54" stroke-width="2" fill="none"/><path d="M638.5 103c0-2.76 2.24-5 5-5H795c2.76 0 5 2.24 5 5v50c0 2.76-2.24 5-5 5H643.5c-2.76 0-5-2.24-5-5z" fill="none"/><use xlink:href="#n" transform="matrix(1,0,0,1,638.5,98) translate(31.061728395061728 34.44444444444444)"/><path d="M658.5 30c0 5.52-4.48 10-10 10s-10-4.48-10-10 4.48-10 10-10 10 4.48 10 10z" stroke="#0d1f54" stroke-width="2"/><path d="M598.5 30c0-2.76 2.24-5 5-5h85c2.77 0 5 2.24 5 5v50c0 2.76-2.23 5-5 5h-85c-2.76 0-5-2.24-5-5z" fill="none"/><use xlink:href="#o" transform="matrix(1,0,0,1,598.5044249382336,25) translate(30.525 33.6)"/><path d="M718.5 229v22c0 2.76-2.24 5-5 5h-67.12c-2.42 0-4.38 1.96-4.38 4.38v4.38M718.5 229v-3" stroke="#000" stroke-width="2" fill="none"/><path d="M642 279.76l-4.64-14.27h9.28z"/><path d="M642 283l-6-18.5h12zm-3.26-16.5L642 276.5l3.26-10.03z"/><path d="M859 128h-21.26M859 128h3" stroke="#000" stroke-width="2" fill="none"/><path d="M822.74 128l14.26-4.64v9.28z" stroke="#000" stroke-width="2"/><defs><path d="M140-251c81 0 123 46 123 126C263-46 219 4 140 4 59 4 17-45 17-125s42-126 123-126zm0 227c63 0 89-41 89-101s-29-99-89-99c-61 0-89 39-89 99S79-25 140-24" id="p"/><path d="M135-143c-3-34-86-38-87 0 15 53 115 12 119 90S17 21 10-45l28-5c4 36 97 45 98 0-10-56-113-15-118-90-4-57 82-63 122-42 12 7 21 19 24 35" id="q"/><path d="M96-169c-40 0-48 33-48 73s9 75 48 75c24 0 41-14 43-38l32 2c-6 37-31 61-74 61-59 0-76-41-82-99-10-93 101-131 147-64 4 7 5 14 7 22l-32 3c-4-21-16-35-41-35" id="r"/><path d="M24-231v-30h32v30H24zM24 0v-190h32V0H24" id="s"/><path d="M24 0v-261h32V0H24" id="t"/><path d="M141-36C126-15 110 5 73 4 37 3 15-17 15-53c-1-64 63-63 125-63 3-35-9-54-41-54-24 1-41 7-42 31l-33-3c5-37 33-52 76-52 45 0 72 20 72 64v82c-1 20 7 32 28 27v20c-31 9-61-2-59-35zM48-53c0 20 12 33 32 33 41-3 63-29 60-74-43 2-92-5-92 41" id="u"/><path d="M59-47c-2 24 18 29 38 22v24C64 9 27 4 27-40v-127H5v-23h24l9-43h21v43h35v23H59v120" id="v"/><path d="M100-194c62-1 85 37 85 99 1 63-27 99-86 99S16-35 15-95c0-66 28-99 85-99zM99-20c44 1 53-31 53-75 0-43-8-75-51-75s-53 32-53 75 10 74 51 75" id="w"/><path d="M114-163C36-179 61-72 57 0H25l-1-190h30c1 12-1 29 2 39 6-27 23-49 58-41v29" id="x"/><path d="M190 0L58-211 59 0H30v-248h39L202-35l-2-213h31V0h-41" id="y"/><path d="M85-194c31 0 48 13 60 33l-1-100h32l1 261h-30c-2-10 0-23-3-31C134-8 116 4 85 4 32 4 16-35 15-94c0-66 23-100 70-100zm9 24c-40 0-46 34-46 75 0 40 6 74 45 74 42 0 51-32 51-76 0-42-9-74-50-73" id="z"/><path d="M100-194c63 0 86 42 84 106H49c0 40 14 67 53 68 26 1 43-12 49-29l28 8c-11 28-37 45-77 45C44 4 14-33 15-96c1-61 26-98 85-98zm52 81c6-60-76-77-97-28-3 7-6 17-6 28h103" id="A"/><g id="a"><use transform="matrix(0.06172839506172839,0,0,0.06172839506172839,0,0)" xlink:href="#p"/><use transform="matrix(0.06172839506172839,0,0,0.06172839506172839,17.28395061728395,0)" xlink:href="#q"/><use transform="matrix(0.06172839506172839,0,0,0.06172839506172839,28.39506172839506,0)" xlink:href="#r"/><use transform="matrix(0.06172839506172839,0,0,0.06172839506172839,39.50617283950617,0)" xlink:href="#s"/><use transform="matrix(0.06172839506172839,0,0,0.06172839506172839,44.382716049382715,0)" xlink:href="#t"/><use transform="matrix(0.06172839506172839,0,0,0.06172839506172839,49.25925925925926,0)" xlink:href="#t"/><use transform="matrix(0.06172839506172839,0,0,0.06172839506172839,54.135802469135804,0)" xlink:href="#u"/><use transform="matrix(0.06172839506172839,0,0,0.06172839506172839,66.48148148148148,0)" xlink:href="#v"/><use transform="matrix(0.06172839506172839,0,0,0.06172839506172839,72.65432098765432,0)" xlink:href="#w"/><use transform="matrix(0.06172839506172839,0,0,0.06172839506172839,85,0)" xlink:href="#x"/><use transform="matrix(0.06172839506172839,0,0,0.06172839506172839,92.34567901234568,0)" xlink:href="#y"/><use transform="matrix(0.06172839506172839,0,0,0.06172839506172839,108.33333333333334,0)" xlink:href="#w"/><use transform="matrix(0.06172839506172839,0,0,0.06172839506172839,120.67901234567903,0)" xlink:href="#z"/><use transform="matrix(0.06172839506172839,0,0,0.06172839506172839,133.0246913580247,0)" xlink:href="#A"/></g><path d="M117-194c89-4 53 116 60 194h-32v-121c0-31-8-49-39-48C34-167 62-67 57 0H25l-1-190h30c1 10-1 24 2 32 11-22 29-35 61-36" id="B"/><g id="b"><use transform="matrix(0.06172839506172839,0,0,0.06172839506172839,0,0)" xlink:href="#z"/><use transform="matrix(0.06172839506172839,0,0,0.06172839506172839,12.345679012345679,0)" xlink:href="#A"/><use transform="matrix(0.06172839506172839,0,0,0.06172839506172839,24.691358024691358,0)" xlink:href="#q"/><use transform="matrix(0.06172839506172839,0,0,0.06172839506172839,35.80246913580247,0)" xlink:href="#v"/><use transform="matrix(0.06172839506172839,0,0,0.06172839506172839,41.97530864197531,0)" xlink:href="#s"/><use transform="matrix(0.06172839506172839,0,0,0.06172839506172839,46.851851851851855,0)" xlink:href="#B"/><use transform="matrix(0.06172839506172839,0,0,0.06172839506172839,59.19753086419753,0)" xlink:href="#u"/><use transform="matrix(0.06172839506172839,0,0,0.06172839506172839,71.54320987654322,0)" xlink:href="#v"/><use transform="matrix(0.06172839506172839,0,0,0.06172839506172839,77.71604938271605,0)" xlink:href="#s"/><use transform="matrix(0.06172839506172839,0,0,0.06172839506172839,82.5925925925926,0)" xlink:href="#w"/><use transform="matrix(0.06172839506172839,0,0,0.06172839506172839,94.93827160493828,0)" xlink:href="#B"/></g><path d="M143 4C61 4 22-44 18-125c-5-107 100-154 193-111 17 8 29 25 37 43l-32 9c-13-25-37-40-76-40-61 0-88 39-88 99 0 61 29 100 91 101 35 0 62-11 79-27v-45h-74v-28h105v86C228-13 192 4 143 4" id="C"/><g id="c"><use transform="matrix(0.06172839506172839,0,0,0.06172839506172839,0,0)" xlink:href="#C"/><use transform="matrix(0.06172839506172839,0,0,0.06172839506172839,17.28395061728395,0)" xlink:href="#u"/><use transform="matrix(0.06172839506172839,0,0,0.06172839506172839,29.629629629629626,0)" xlink:href="#s"/><use transform="matrix(0.06172839506172839,0,0,0.06172839506172839,34.50617283950617,0)" xlink:href="#B"/><use transform="matrix(0.06172839506172839,0,0,0.06172839506172839,46.85185185185185,0)" xlink:href="#y"/><use transform="matrix(0.06172839506172839,0,0,0.06172839506172839,62.8395061728395,0)" xlink:href="#w"/><use transform="matrix(0.06172839506172839,0,0,0.06172839506172839,75.18518518518518,0)" xlink:href="#z"/><use transform="matrix(0.06172839506172839,0,0,0.06172839506172839,87.53086419753086,0)" xlink:href="#A"/></g><path d="M101-234c-31-9-42 10-38 44h38v23H63V0H32v-167H5v-23h27c-7-52 17-82 69-68v24" id="D"/><path d="M145-31C134-9 116 4 85 4 32 4 16-35 15-94c0-59 17-99 70-100 32-1 48 14 60 33 0-11-1-24 2-32h30l-1 268h-32zM93-21c41 0 51-33 51-76s-8-73-50-73c-40 0-46 35-46 75s5 74 45 74" id="E"/><path d="M84 4C-5 8 30-112 23-190h32v120c0 31 7 50 39 49 72-2 45-101 50-169h31l1 190h-30c-1-10 1-25-2-33-11 22-28 36-60 37" id="F"/><path d="M179-190L93 31C79 59 56 82 12 73V49c39 6 53-20 64-50L1-190h34L92-34l54-156h33" id="G"/><g id="d"><use transform="matrix(0.05,0,0,0.05,0,0)" xlink:href="#D"/><use transform="matrix(0.05,0,0,0.05,5,0)" xlink:href="#x"/><use transform="matrix(0.05,0,0,0.05,10.95,0)" xlink:href="#A"/><use transform="matrix(0.05,0,0,0.05,20.95,0)" xlink:href="#E"/><use transform="matrix(0.05,0,0,0.05,30.950000000000003,0)" xlink:href="#F"/><use transform="matrix(0.05,0,0,0.05,40.95,0)" xlink:href="#A"/><use transform="matrix(0.05,0,0,0.05,50.95,0)" xlink:href="#B"/><use transform="matrix(0.05,0,0,0.05,60.95,0)" xlink:href="#r"/><use transform="matrix(0.05,0,0,0.05,69.95,0)" xlink:href="#G"/></g><g id="e"><use transform="matrix(0.05,0,0,0.05,0,0)" xlink:href="#z"/><use transform="matrix(0.05,0,0,0.05,10,0)" xlink:href="#A"/><use transform="matrix(0.05,0,0,0.05,20,0)" xlink:href="#v"/><use transform="matrix(0.05,0,0,0.05,25,0)" xlink:href="#F"/><use transform="matrix(0.05,0,0,0.05,35,0)" xlink:href="#B"/><use transform="matrix(0.05,0,0,0.05,45,0)" xlink:href="#A"/></g><path d="M177-190C167-65 218 103 67 71c-23-6-38-20-44-43l32-5c15 47 100 32 89-28v-30C133-14 115 1 83 1 29 1 15-40 15-95c0-56 16-97 71-98 29-1 48 16 59 35 1-10 0-23 2-32h30zM94-22c36 0 50-32 50-73 0-42-14-75-50-75-39 0-46 34-46 75s6 73 46 73" id="H"/><g id="f"><use transform="matrix(0.05,0,0,0.05,0,0)" xlink:href="#H"/><use transform="matrix(0.05,0,0,0.05,10,0)" xlink:href="#u"/><use transform="matrix(0.05,0,0,0.05,20,0)" xlink:href="#s"/><use transform="matrix(0.05,0,0,0.05,23.95,0)" xlink:href="#B"/></g><path fill="#af1e3a" d="M147 0H94L2-248h55l64 206c17-72 42-137 63-206h54" id="I"/><path fill="#af1e3a" d="M110-194c64 0 96 36 96 99 0 64-35 99-97 99-61 0-95-36-95-99 0-62 34-99 96-99zm-1 164c35 0 45-28 45-65 0-40-10-65-43-65-34 0-45 26-45 65 0 36 10 65 43 65" id="J"/><path fill="#af1e3a" d="M25-224v-37h50v37H25zM25 0v-190h50V0H25" id="K"/><path fill="#af1e3a" d="M190-63c-7 42-38 67-86 67-59 0-84-38-90-98-12-110 154-137 174-36l-49 2c-2-19-15-32-35-32-30 0-35 28-38 64-6 74 65 87 74 30" id="L"/><path fill="#af1e3a" d="M185-48c-13 30-37 53-82 52C43 2 14-33 14-96s30-98 90-98c62 0 83 45 84 108H66c0 31 8 55 39 56 18 0 30-7 34-22zm-45-69c5-46-57-63-70-21-2 6-4 13-4 21h74" id="M"/><g id="g"><use transform="matrix(0.07407407407407408,0,0,0.07407407407407408,0,0)" xlink:href="#I"/><use transform="matrix(0.07407407407407408,0,0,0.07407407407407408,15.777777777777779,0)" xlink:href="#J"/><use transform="matrix(0.07407407407407408,0,0,0.07407407407407408,32,0)" xlink:href="#K"/><use transform="matrix(0.07407407407407408,0,0,0.07407407407407408,39.407407407407405,0)" xlink:href="#L"/><use transform="matrix(0.07407407407407408,0,0,0.07407407407407408,54.22222222222222,0)" xlink:href="#M"/></g><path d="M160-131c35 5 61 23 61 61C221 17 115-2 30 0v-248c76 3 177-17 177 60 0 33-19 50-47 57zm-97-11c50-1 110 9 110-42 0-47-63-36-110-37v79zm0 115c55-2 124 14 124-45 0-56-70-42-124-44v89" id="N"/><path d="M63-220v92h138v28H63V0H30v-248h175v28H63" id="O"/><g id="h"><use transform="matrix(0.06172839506172839,0,0,0.06172839506172839,0,0)" xlink:href="#N"/><use transform="matrix(0.06172839506172839,0,0,0.06172839506172839,14.814814814814813,0)" xlink:href="#s"/><use transform="matrix(0.06172839506172839,0,0,0.06172839506172839,19.691358024691354,0)" xlink:href="#E"/><use transform="matrix(0.06172839506172839,0,0,0.06172839506172839,32.03703703703703,0)" xlink:href="#F"/><use transform="matrix(0.06172839506172839,0,0,0.06172839506172839,44.38271604938271,0)" xlink:href="#u"/><use transform="matrix(0.06172839506172839,0,0,0.06172839506172839,56.728395061728385,0)" xlink:href="#z"/><use transform="matrix(0.06172839506172839,0,0,0.06172839506172839,69.07407407407406,0)" xlink:href="#O"/><use transform="matrix(0.06172839506172839,0,0,0.06172839506172839,82.59259259259258,0)" xlink:href="#s"/><use transform="matrix(0.06172839506172839,0,0,0.06172839506172839,87.46913580246913,0)" xlink:href="#t"/><use transform="matrix(0.06172839506172839,0,0,0.06172839506172839,92.34567901234567,0)" xlink:href="#v"/><use transform="matrix(0.06172839506172839,0,0,0.06172839506172839,98.5185185185185,0)" xlink:href="#A"/><use transform="matrix(0.06172839506172839,0,0,0.06172839506172839,110.86419753086419,0)" xlink:href="#x"/><use transform="matrix(0.06172839506172839,0,0,0.06172839506172839,118.20987654320987,0)" xlink:href="#y"/><use transform="matrix(0.06172839506172839,0,0,0.06172839506172839,134.19753086419752,0)" xlink:href="#w"/><use transform="matrix(0.06172839506172839,0,0,0.06172839506172839,146.5432098765432,0)" xlink:href="#z"/><use transform="matrix(0.06172839506172839,0,0,0.06172839506172839,158.88888888888886,0)" xlink:href="#A"/></g><path d="M140-251c81 0 123 46 123 126C263-53 228-8 163 1c7 30 30 48 69 40v23c-55 16-95-15-103-61C56-3 17-48 17-125c0-80 42-126 123-126zm0 227c63 0 89-41 89-101s-29-99-89-99c-61 0-89 39-89 99S79-25 140-24" id="P"/><use transform="matrix(0.05,0,0,0.05,0,0)" xlink:href="#P" id="i"/><path fill="#af1e3a" d="M67-125c0 53 21 87 73 88 37 1 54-22 65-47l45 17C233-25 199 4 140 4 58 4 20-42 15-125 8-235 124-281 211-232c18 10 29 29 36 50l-46 12c-8-25-30-41-62-41-52 0-71 34-72 86" id="Q"/><path fill="#af1e3a" d="M114-157C55-157 80-60 75 0H25v-261h50l-1 109c12-26 28-41 61-42 86-1 58 113 63 194h-50c-7-57 23-157-34-157" id="R"/><path fill="#af1e3a" d="M135-150c-39-12-60 13-60 57V0H25l-1-190h47c2 13-1 29 3 40 6-28 27-53 61-41v41" id="S"/><path fill="#af1e3a" d="M88-194c31-1 46 15 58 34l-1-101h50l1 261h-48c-2-10 0-23-3-31C134-8 116 4 84 4 32 4 16-41 15-95c0-56 19-97 73-99zm17 164c33 0 40-30 41-66 1-37-9-64-41-64s-38 30-39 65c0 43 13 65 39 65" id="T"/><g id="j"><use transform="matrix(0.07407407407407408,0,0,0.07407407407407408,0,0)" xlink:href="#Q"/><use transform="matrix(0.07407407407407408,0,0,0.07407407407407408,19.185185185185187,0)" xlink:href="#R"/><use transform="matrix(0.07407407407407408,0,0,0.07407407407407408,35.40740740740741,0)" xlink:href="#J"/><use transform="matrix(0.07407407407407408,0,0,0.07407407407407408,51.62962962962963,0)" xlink:href="#S"/><use transform="matrix(0.07407407407407408,0,0,0.07407407407407408,62.00000000000001,0)" xlink:href="#T"/></g><g id="k"><use transform="matrix(0.06172839506172839,0,0,0.06172839506172839,0,0)" xlink:href="#p"/><use transform="matrix(0.06172839506172839,0,0,0.06172839506172839,17.28395061728395,0)" xlink:href="#q"/><use transform="matrix(0.06172839506172839,0,0,0.06172839506172839,28.39506172839506,0)" xlink:href="#r"/><use transform="matrix(0.06172839506172839,0,0,0.06172839506172839,39.50617283950617,0)" xlink:href="#s"/><use transform="matrix(0.06172839506172839,0,0,0.06172839506172839,44.382716049382715,0)" xlink:href="#t"/><use transform="matrix(0.06172839506172839,0,0,0.06172839506172839,49.25925925925926,0)" xlink:href="#t"/><use transform="matrix(0.06172839506172839,0,0,0.06172839506172839,54.135802469135804,0)" xlink:href="#u"/><use transform="matrix(0.06172839506172839,0,0,0.06172839506172839,66.48148148148148,0)" xlink:href="#v"/><use transform="matrix(0.06172839506172839,0,0,0.06172839506172839,72.65432098765432,0)" xlink:href="#w"/><use transform="matrix(0.06172839506172839,0,0,0.06172839506172839,85,0)" xlink:href="#x"/><use transform="matrix(0.06172839506172839,0,0,0.06172839506172839,92.34567901234568,0)" xlink:href="#y"/><use transform="matrix(0.06172839506172839,0,0,0.06172839506172839,108.33333333333334,0)" xlink:href="#w"/><use transform="matrix(0.06172839506172839,0,0,0.06172839506172839,120.67901234567903,0)" xlink:href="#z"/><use transform="matrix(0.06172839506172839,0,0,0.06172839506172839,133.0246913580247,0)" xlink:href="#A"/></g><g id="l"><use transform="matrix(0.05,0,0,0.05,0,0)" xlink:href="#D"/><use transform="matrix(0.05,0,0,0.05,5,0)" xlink:href="#x"/><use transform="matrix(0.05,0,0,0.05,10.95,0)" xlink:href="#A"/><use transform="matrix(0.05,0,0,0.05,20.95,0)" xlink:href="#E"/><use transform="matrix(0.05,0,0,0.05,30.950000000000003,0)" xlink:href="#F"/><use transform="matrix(0.05,0,0,0.05,40.95,0)" xlink:href="#A"/><use transform="matrix(0.05,0,0,0.05,50.95,0)" xlink:href="#B"/><use transform="matrix(0.05,0,0,0.05,60.95,0)" xlink:href="#r"/><use transform="matrix(0.05,0,0,0.05,69.95,0)" xlink:href="#G"/></g><g id="m"><use transform="matrix(0.05,0,0,0.05,0,0)" xlink:href="#z"/><use transform="matrix(0.05,0,0,0.05,10,0)" xlink:href="#A"/><use transform="matrix(0.05,0,0,0.05,20,0)" xlink:href="#v"/><use transform="matrix(0.05,0,0,0.05,25,0)" xlink:href="#F"/><use transform="matrix(0.05,0,0,0.05,35,0)" xlink:href="#B"/><use transform="matrix(0.05,0,0,0.05,45,0)" xlink:href="#A"/></g><g id="n"><use transform="matrix(0.06172839506172839,0,0,0.06172839506172839,0,0)" xlink:href="#C"/><use transform="matrix(0.06172839506172839,0,0,0.06172839506172839,17.28395061728395,0)" xlink:href="#u"/><use transform="matrix(0.06172839506172839,0,0,0.06172839506172839,29.629629629629626,0)" xlink:href="#s"/><use transform="matrix(0.06172839506172839,0,0,0.06172839506172839,34.50617283950617,0)" xlink:href="#B"/><use transform="matrix(0.06172839506172839,0,0,0.06172839506172839,46.85185185185185,0)" xlink:href="#y"/><use transform="matrix(0.06172839506172839,0,0,0.06172839506172839,62.8395061728395,0)" xlink:href="#w"/><use transform="matrix(0.06172839506172839,0,0,0.06172839506172839,75.18518518518518,0)" xlink:href="#z"/><use transform="matrix(0.06172839506172839,0,0,0.06172839506172839,87.53086419753086,0)" xlink:href="#A"/></g><g id="o"><use transform="matrix(0.05,0,0,0.05,0,0)" xlink:href="#H"/><use transform="matrix(0.05,0,0,0.05,10,0)" xlink:href="#u"/><use transform="matrix(0.05,0,0,0.05,20,0)" xlink:href="#s"/><use transform="matrix(0.05,0,0,0.05,23.95,0)" xlink:href="#B"/></g></defs></g></svg>