<svg xmlns="http://www.w3.org/2000/svg" xmlns:xlink="http://www.w3.org/1999/xlink" xmlns:lucid="lucid" width="838" height="248"><g transform="translate(-320 -140)" lucid:page-tab-id="0_0"><path d="M0 0h1360v1760H0z" fill="#fff"/><path d="M360 173c0-2.76 2.24-5 5-5h190c2.76 0 5 2.24 5 5v190c0 2.76-2.24 5-5 5H365c-2.76 0-5-2.24-5-5z" stroke="#000" stroke-width="2" fill="none"/><path d="M340 243c0-2.76 2.24-5 5-5h230c2.76 0 5 2.24 5 5v50c0 2.76-2.24 5-5 5H345c-2.76 0-5-2.24-5-5z" fill="none"/><use xlink:href="#a" transform="matrix(1,0,0,1,340,238) translate(61.12499999999999 33.6)"/><path d="M918 173c0-2.76 2.23-5 5-5h190c2.76 0 5 2.24 5 5v190c0 2.76-2.24 5-5 5H923c-2.77 0-5-2.24-5-5z" stroke="#000" stroke-width="2" fill="none"/><path d="M898 243c0-2.76 2.23-5 5-5h230c2.76 0 5 2.24 5 5v50c0 2.76-2.24 5-5 5H903c-2.77 0-5-2.24-5-5z" fill="none"/><use xlink:href="#b" transform="matrix(1,0,0,1,897.9955750617992,238) translate(28.125 33.6)"/><path d="M640 173c0-2.76 2.24-5 5-5h190c2.76 0 5 2.24 5 5v190c0 2.76-2.24 5-5 5H645c-2.76 0-5-2.24-5-5z" stroke="#000" stroke-width="2" fill="none"/><path d="M620 243c0-2.76 2.24-5 5-5h230c2.76 0 5 2.24 5 5v50c0 2.76-2.24 5-5 5H625c-2.76 0-5-2.24-5-5z" fill="none"/><use xlink:href="#c" transform="matrix(1,0,0,1,619.9999999999999,238) translate(79.55 33.6)"/><path d="M561 268h59.76M561 268h-3" stroke="#000" stroke-width="2" fill="none"/><path d="M635.76 268l-14.26 4.64v-9.28z" stroke="#000" stroke-width="2"/><path d="M841 268h57.76M841 268h-3" stroke="#000" stroke-width="2" fill="none"/><path d="M913.76 268l-14.27 4.64v-9.28z" stroke="#000" stroke-width="2"/><path d="M400 170c0 5.52-4.48 10-10 10s-10-4.48-10-10 4.48-10 10-10 10 4.48 10 10zM538 170c0 5.52-4.48 10-10 10s-10-4.48-10-10 4.48-10 10-10 10 4.48 10 10zM680 170c0 5.52-4.48 10-10 10s-10-4.48-10-10 4.48-10 10-10 10 4.48 10 10z" stroke="#000" stroke-opacity="0" stroke-width="2"/><path d="M357 170c0-2.76 2.24-5 5-5h85c2.76 0 5 2.24 5 5v50c0 2.76-2.24 5-5 5h-85c-2.76 0-5-2.24-5-5z" fill="none"/><use xlink:href="#d" transform="matrix(1,0,0,1,357,165) translate(8.024999999999999 33.6)"/><path d="M480.5 170c0-2.76 2.24-5 5-5h85c2.76 0 5 2.24 5 5v50c0 2.76-2.24 5-5 5h-85c-2.76 0-5-2.24-5-5z" fill="none"/><use xlink:href="#e" transform="matrix(1,0,0,1,480.5,165) translate(20 33.6)"/><path d="M620.5 170c0-2.76 2.24-5 5-5h85c2.76 0 5 2.24 5 5v50c0 2.76-2.24 5-5 5h-85c-2.76 0-5-2.24-5-5z" fill="none"/><use xlink:href="#f" transform="matrix(1,0,0,1,620.5,165) translate(26.025 33.6)"/><defs><path d="M140-251c81 0 123 46 123 126C263-46 219 4 140 4 59 4 17-45 17-125s42-126 123-126zm0 227c63 0 89-41 89-101s-29-99-89-99c-61 0-89 39-89 99S79-25 140-24" id="g"/><path d="M135-143c-3-34-86-38-87 0 15 53 115 12 119 90S17 21 10-45l28-5c4 36 97 45 98 0-10-56-113-15-118-90-4-57 82-63 122-42 12 7 21 19 24 35" id="h"/><path d="M96-169c-40 0-48 33-48 73s9 75 48 75c24 0 41-14 43-38l32 2c-6 37-31 61-74 61-59 0-76-41-82-99-10-93 101-131 147-64 4 7 5 14 7 22l-32 3c-4-21-16-35-41-35" id="i"/><path d="M24-231v-30h32v30H24zM24 0v-190h32V0H24" id="j"/><path d="M24 0v-261h32V0H24" id="k"/><path d="M141-36C126-15 110 5 73 4 37 3 15-17 15-53c-1-64 63-63 125-63 3-35-9-54-41-54-24 1-41 7-42 31l-33-3c5-37 33-52 76-52 45 0 72 20 72 64v82c-1 20 7 32 28 27v20c-31 9-61-2-59-35zM48-53c0 20 12 33 32 33 41-3 63-29 60-74-43 2-92-5-92 41" id="l"/><path d="M59-47c-2 24 18 29 38 22v24C64 9 27 4 27-40v-127H5v-23h24l9-43h21v43h35v23H59v120" id="m"/><path d="M100-194c62-1 85 37 85 99 1 63-27 99-86 99S16-35 15-95c0-66 28-99 85-99zM99-20c44 1 53-31 53-75 0-43-8-75-51-75s-53 32-53 75 10 74 51 75" id="n"/><path d="M114-163C36-179 61-72 57 0H25l-1-190h30c1 12-1 29 2 39 6-27 23-49 58-41v29" id="o"/><path d="M190 0L58-211 59 0H30v-248h39L202-35l-2-213h31V0h-41" id="p"/><path d="M85-194c31 0 48 13 60 33l-1-100h32l1 261h-30c-2-10 0-23-3-31C134-8 116 4 85 4 32 4 16-35 15-94c0-66 23-100 70-100zm9 24c-40 0-46 34-46 75 0 40 6 74 45 74 42 0 51-32 51-76 0-42-9-74-50-73" id="q"/><path d="M100-194c63 0 86 42 84 106H49c0 40 14 67 53 68 26 1 43-12 49-29l28 8c-11 28-37 45-77 45C44 4 14-33 15-96c1-61 26-98 85-98zm52 81c6-60-76-77-97-28-3 7-6 17-6 28h103" id="r"/><g id="a"><use transform="matrix(0.05,0,0,0.05,0,0)" xlink:href="#g"/><use transform="matrix(0.05,0,0,0.05,14,0)" xlink:href="#h"/><use transform="matrix(0.05,0,0,0.05,23,0)" xlink:href="#i"/><use transform="matrix(0.05,0,0,0.05,32,0)" xlink:href="#j"/><use transform="matrix(0.05,0,0,0.05,35.95,0)" xlink:href="#k"/><use transform="matrix(0.05,0,0,0.05,39.900000000000006,0)" xlink:href="#k"/><use transform="matrix(0.05,0,0,0.05,43.85000000000001,0)" xlink:href="#l"/><use transform="matrix(0.05,0,0,0.05,53.85,0)" xlink:href="#m"/><use transform="matrix(0.05,0,0,0.05,58.85,0)" xlink:href="#n"/><use transform="matrix(0.05,0,0,0.05,68.85000000000001,0)" xlink:href="#o"/><use transform="matrix(0.05,0,0,0.05,74.80000000000001,0)" xlink:href="#p"/><use transform="matrix(0.05,0,0,0.05,87.75000000000001,0)" xlink:href="#n"/><use transform="matrix(0.05,0,0,0.05,97.75000000000001,0)" xlink:href="#q"/><use transform="matrix(0.05,0,0,0.05,107.75,0)" xlink:href="#r"/></g><path d="M205 0l-28-72H64L36 0H1l101-248h38L239 0h-34zm-38-99l-47-123c-12 45-31 82-46 123h93" id="s"/><path d="M84 4C-5 8 30-112 23-190h32v120c0 31 7 50 39 49 72-2 45-101 50-169h31l1 190h-30c-1-10 1-25-2-33-11 22-28 36-60 37" id="t"/><path d="M30-248c118-7 216 8 213 122C240-48 200 0 122 0H30v-248zM63-27c89 8 146-16 146-99s-60-101-146-95v194" id="u"/><path d="M117-194c89-4 53 116 60 194h-32v-121c0-31-8-49-39-48C34-167 62-67 57 0H25l-1-190h30c1 10-1 24 2 32 11-22 29-35 61-36" id="v"/><g id="b"><use transform="matrix(0.05,0,0,0.05,0,0)" xlink:href="#s"/><use transform="matrix(0.05,0,0,0.05,12,0)" xlink:href="#t"/><use transform="matrix(0.05,0,0,0.05,22,0)" xlink:href="#q"/><use transform="matrix(0.05,0,0,0.05,32,0)" xlink:href="#j"/><use transform="matrix(0.05,0,0,0.05,35.95,0)" xlink:href="#n"/><use transform="matrix(0.05,0,0,0.05,45.95,0)" xlink:href="#u"/><use transform="matrix(0.05,0,0,0.05,58.900000000000006,0)" xlink:href="#r"/><use transform="matrix(0.05,0,0,0.05,68.9,0)" xlink:href="#h"/><use transform="matrix(0.05,0,0,0.05,77.9,0)" xlink:href="#m"/><use transform="matrix(0.05,0,0,0.05,82.9,0)" xlink:href="#j"/><use transform="matrix(0.05,0,0,0.05,86.85000000000001,0)" xlink:href="#v"/><use transform="matrix(0.05,0,0,0.05,96.85000000000001,0)" xlink:href="#l"/><use transform="matrix(0.05,0,0,0.05,106.85000000000001,0)" xlink:href="#m"/><use transform="matrix(0.05,0,0,0.05,111.85000000000001,0)" xlink:href="#j"/><use transform="matrix(0.05,0,0,0.05,115.80000000000001,0)" xlink:href="#m"/><use transform="matrix(0.05,0,0,0.05,120.80000000000001,0)" xlink:href="#n"/><use transform="matrix(0.05,0,0,0.05,130.8,0)" xlink:href="#v"/><use transform="matrix(0.05,0,0,0.05,140.8,0)" xlink:href="#p"/><use transform="matrix(0.05,0,0,0.05,153.75,0)" xlink:href="#n"/><use transform="matrix(0.05,0,0,0.05,163.75,0)" xlink:href="#q"/><use transform="matrix(0.05,0,0,0.05,173.75,0)" xlink:href="#r"/></g><path d="M143 4C61 4 22-44 18-125c-5-107 100-154 193-111 17 8 29 25 37 43l-32 9c-13-25-37-40-76-40-61 0-88 39-88 99 0 61 29 100 91 101 35 0 62-11 79-27v-45h-74v-28h105v86C228-13 192 4 143 4" id="w"/><g id="c"><use transform="matrix(0.05,0,0,0.05,0,0)" xlink:href="#w"/><use transform="matrix(0.05,0,0,0.05,14,0)" xlink:href="#l"/><use transform="matrix(0.05,0,0,0.05,24,0)" xlink:href="#j"/><use transform="matrix(0.05,0,0,0.05,27.950000000000003,0)" xlink:href="#v"/><use transform="matrix(0.05,0,0,0.05,37.95,0)" xlink:href="#p"/><use transform="matrix(0.05,0,0,0.05,50.900000000000006,0)" xlink:href="#n"/><use transform="matrix(0.05,0,0,0.05,60.900000000000006,0)" xlink:href="#q"/><use transform="matrix(0.05,0,0,0.05,70.9,0)" xlink:href="#r"/></g><path d="M101-234c-31-9-42 10-38 44h38v23H63V0H32v-167H5v-23h27c-7-52 17-82 69-68v24" id="x"/><path d="M145-31C134-9 116 4 85 4 32 4 16-35 15-94c0-59 17-99 70-100 32-1 48 14 60 33 0-11-1-24 2-32h30l-1 268h-32zM93-21c41 0 51-33 51-76s-8-73-50-73c-40 0-46 35-46 75s5 74 45 74" id="y"/><path d="M179-190L93 31C79 59 56 82 12 73V49c39 6 53-20 64-50L1-190h34L92-34l54-156h33" id="z"/><g id="d"><use transform="matrix(0.05,0,0,0.05,0,0)" xlink:href="#x"/><use transform="matrix(0.05,0,0,0.05,5,0)" xlink:href="#o"/><use transform="matrix(0.05,0,0,0.05,10.95,0)" xlink:href="#r"/><use transform="matrix(0.05,0,0,0.05,20.95,0)" xlink:href="#y"/><use transform="matrix(0.05,0,0,0.05,30.950000000000003,0)" xlink:href="#t"/><use transform="matrix(0.05,0,0,0.05,40.95,0)" xlink:href="#r"/><use transform="matrix(0.05,0,0,0.05,50.95,0)" xlink:href="#v"/><use transform="matrix(0.05,0,0,0.05,60.95,0)" xlink:href="#i"/><use transform="matrix(0.05,0,0,0.05,69.95,0)" xlink:href="#z"/></g><g id="e"><use transform="matrix(0.05,0,0,0.05,0,0)" xlink:href="#q"/><use transform="matrix(0.05,0,0,0.05,10,0)" xlink:href="#r"/><use transform="matrix(0.05,0,0,0.05,20,0)" xlink:href="#m"/><use transform="matrix(0.05,0,0,0.05,25,0)" xlink:href="#t"/><use transform="matrix(0.05,0,0,0.05,35,0)" xlink:href="#v"/><use transform="matrix(0.05,0,0,0.05,45,0)" xlink:href="#r"/></g><path d="M108 0H70L1-190h34L89-25l56-165h34" id="A"/><g id="f"><use transform="matrix(0.05,0,0,0.05,0,0)" xlink:href="#A"/><use transform="matrix(0.05,0,0,0.05,9,0)" xlink:href="#l"/><use transform="matrix(0.05,0,0,0.05,19,0)" xlink:href="#k"/><use transform="matrix(0.05,0,0,0.05,22.95,0)" xlink:href="#t"/><use transform="matrix(0.05,0,0,0.05,32.95,0)" xlink:href="#r"/></g></defs></g></svg>