<svg xmlns="http://www.w3.org/2000/svg" xmlns:xlink="http://www.w3.org/1999/xlink" xmlns:lucid="lucid" width="1338.5" height="680"><g transform="translate(40 -60)" lucid:page-tab-id="0_0"><path d="M0 0h1323.2v1870.4H0z" fill="#fff"/><path d="M70 163c0-2.76 2.24-5 5-5h190c2.76 0 5 2.24 5 5v190c0 2.76-2.24 5-5 5H75c-2.76 0-5-2.24-5-5z" stroke="#0d1f54" stroke-width="2" fill="none"/><path d="M50 233c0-2.76 2.24-5 5-5h230c2.76 0 5 2.24 5 5v50c0 2.76-2.24 5-5 5H55c-2.76 0-5-2.24-5-5z" fill="none"/><use xlink:href="#a" transform="matrix(1,0,0,1,50,228) translate(61.12499999999999 33.6)"/><path d="M1058.5 297c0-2.76 2.24-5 5-5h190c2.76 0 5 2.24 5 5v190c0 2.76-2.24 5-5 5h-190c-2.76 0-5-2.24-5-5z" stroke="#0d1f54" stroke-width="2" fill="none"/><path d="M1038.5 367c0-2.76 2.24-5 5-5h230c2.76 0 5 2.24 5 5v50c0 2.76-2.24 5-5 5h-230c-2.76 0-5-2.24-5-5z" fill="none"/><use xlink:href="#b" transform="matrix(1,0,0,1,1038.5000000000002,362) translate(28.125 33.6)"/><path d="M329.5 293c0-2.76 2.24-5 5-5h190c2.76 0 5 2.24 5 5v190c0 2.76-2.24 5-5 5h-190c-2.76 0-5-2.24-5-5z" stroke="#0d1f54" stroke-width="2" fill="none"/><path d="M309 363c0-2.76 2.24-5 5-5h230c2.76 0 5 2.24 5 5v50c0 2.76-2.24 5-5 5H314c-2.76 0-5-2.24-5-5z" fill="none"/><use xlink:href="#c" transform="matrix(1,0,0,1,309,358) translate(79.55 33.6)"/><path d="M271 258h.4l.4.03.37.04.4.06.37.07.38.1.38.1.4.12.38.15.4.17.4.2.4.2.43.24.44.28.46.3.46.37.5.4.5.47.55.53.58.6.62.72.66.84.7.97.8 1.18.85 1.42.97 1.74 1.08 2.2 1.24 2.8 1.46 3.72 1.8 5.18 2.37 7.9 3.9 15.4 11.34 48.4 2.37 7.9 1.8 5.18 1.47 3.72 1.25 2.8 1.08 2.2M271 258l-2.42-1.78" stroke="#0d1f54" stroke-width="2" fill="none"/><path d="M326.04 385.9l-13.84-5.8 6.04-7.02z" stroke="#0d1f54" stroke-width="2" fill="#0d1f54"/><path d="M1024.7 392h14.56M1024.7 392h-3" stroke="#0d1f54" stroke-width="2" fill="none"/><path d="M1054.26 392l-14.26 4.64v-9.28z" stroke="#0d1f54" stroke-width="2" fill="#0d1f54"/><path d="M110 160c0 5.52-4.48 10-10 10s-10-4.48-10-10 4.48-10 10-10 10 4.48 10 10zM248 160c0 5.52-4.48 10-10 10s-10-4.48-10-10 4.48-10 10-10 10 4.48 10 10zM369.5 290c0 5.52-4.48 10-10 10s-10-4.48-10-10 4.48-10 10-10 10 4.48 10 10z" stroke="#0d1f54" stroke-width="2"/><path d="M67 161.33c0-2.76 2.24-5 5-5h85c2.76 0 5 2.24 5 5v50c0 2.76-2.24 5-5 5H72c-2.76 0-5-2.24-5-5z" fill="none"/><use xlink:href="#d" transform="matrix(1,0,0,1,67,156.33333333333331) translate(8.024999999999999 33.6)"/><path d="M190.5 160c0-2.76 2.24-5 5-5h85c2.76 0 5 2.24 5 5v50c0 2.76-2.24 5-5 5h-85c-2.76 0-5-2.24-5-5z" fill="none"/><use xlink:href="#e" transform="matrix(1,0,0,1,190.5,155) translate(20 33.6)"/><path d="M310 290c0-2.76 2.24-5 5-5h85c2.76 0 5 2.24 5 5v50c0 2.76-2.24 5-5 5h-85c-2.76 0-5-2.24-5-5z" fill="none"/><use xlink:href="#f" transform="matrix(1,0,0,1,309.99999999999994,285) translate(30.525 33.6)"/><path d="M70 473c0-2.76 2.24-5 5-5h190c2.76 0 5 2.24 5 5v190c0 2.76-2.24 5-5 5H75c-2.76 0-5-2.24-5-5z" stroke="#0d1f54" stroke-width="2" fill="none"/><path d="M50 543c0-2.76 2.24-5 5-5h230c2.76 0 5 2.24 5 5v50c0 2.76-2.24 5-5 5H55c-2.76 0-5-2.24-5-5z" fill="none"/><use xlink:href="#a" transform="matrix(1,0,0,1,50,538) translate(61.12499999999999 33.6)"/><path d="M271 568h.3l.27-.02.28-.03.3-.05.27-.05.28-.07.3-.08.27-.1.3-.1.3-.12.3-.15.32-.16.3-.2.35-.2.34-.25.36-.27.38-.32.4-.36.43-.42.46-.5.5-.56.52-.68.58-.8.63-.94.7-1.16.78-1.42.88-1.8 1.02-2.27 1.18-3 1.42-4.08 1.74-5.83 2.3-8.96 3.38-16.14 16.57-93.98 2.3-8.96 1.73-5.83 1.42-4.08 1.18-3 .23-.52M271 568l-2.22 2.02" stroke="#0d1f54" stroke-width="2" fill="none"/><path d="M326.27 390.35l-6.45 13.54-6.73-6.4z" stroke="#0d1f54" stroke-width="2" fill="#0d1f54"/><path d="M110 470c0 5.52-4.48 10-10 10s-10-4.48-10-10 4.48-10 10-10 10 4.48 10 10zM248 470c0 5.52-4.48 10-10 10s-10-4.48-10-10 4.48-10 10-10 10 4.48 10 10z" stroke="#0d1f54" stroke-width="2"/><path d="M67 470c0-2.76 2.24-5 5-5h85c2.76 0 5 2.24 5 5v50c0 2.76-2.24 5-5 5H72c-2.76 0-5-2.24-5-5z" fill="none"/><use xlink:href="#d" transform="matrix(1,0,0,1,67,464.99999999999994) translate(8.024999999999999 33.6)"/><path d="M190.5 470c0-2.76 2.24-5 5-5h85c2.76 0 5 2.24 5 5v50c0 2.76-2.24 5-5 5h-85c-2.76 0-5-2.24-5-5z" fill="none"/><use xlink:href="#e" transform="matrix(1,0,0,1,190.5,464.99999999999994) translate(20 33.6)"/><path d="M519 80c16.57 0 30 13.43 30 30v580c0 16.57-13.43 30-30 30H39c-16.57 0-30-13.43-30-30V110c0-16.57 13.43-30 30-30z" fill="none"/><path d="M528.64 81.6l.18.04 3.42 1.52m6.48 4.35l2.5 2.33.3.4m4.3 6.54l.78 1.44.72 2.2m1.6 7.64L549 110v2m0 8.07v4.03m0 8.05v4.03m0 8.06v4.02m0 8.06v4.03m0 8.05v4.03m0 8.06v4m0 8.07v4.03m0 8.05v4.03m0 8.06v4.02m0 8.06v4.03m0 8.05v4.03m0 8.06v4m0 8.07v4.03m0 8.05v4.03m0 8.06v4.02m0 8.06v4.03m0 8.05v4.03m0 8.06v4m0 8.07v4.03m0 8.05v4.03m0 8.06v4.02m0 8.06v4.03m0 8.05v4.03m0 8.06v4m0 8.07v4.03m0 8.05v4.03m0 8.06v4.02m0 8.06v4.03m0 8.05v4.03m0 8.06v4m0 8.07v4.03m0 8.05v4.03m0 8.06v4.02m0 8.06v4.03m0 8.05v4.03m0 8.06v4m0 8.07v4.03m0 8.05v4.03m0 8.06v4.02m0 8.06v4.03m0 8.05v4.03m0 8.06v4m0 8.07v4.03m0 8.05v4.03m0 8.06v4.02m0 8.06v4.03m0 8.05v4.03m0 8.06v2l-.16 1.95m-1.44 7.7l-.04.17-1.52 3.42m-4.35 6.48l-2.33 2.5-.4.3m-6.54 4.3l-1.44.78-2.2.72m-7.64 1.6L519 720h-2m-8 0h-4m-8 0h-4m-8 0h-4m-8 0h-4m-8 0h-4m-8 0h-4m-8 0h-4m-8 0h-4m-8 0h-4m-8 0h-4m-8 0h-4m-8 0h-4m-8 0h-4m-8 0h-4m-8 0h-4m-8 0h-4m-8 0h-4m-8 0h-4m-8 0h-4m-8 0h-4m-8 0h-4m-8 0h-4m-8 0h-4m-8 0h-4m-8 0h-4m-8 0h-4m-8 0h-4m-8 0h-4m-8 0h-4m-8 0h-4m-8 0h-4m-8 0h-4m-8 0h-4m-8 0h-4m-8 0h-4m-8 0h-4m-8 0h-4m-8 0h-4m-8 0h-4m-8 0h-2l-1.95-.16m-7.7-1.44l-.17-.04-3.42-1.52m-6.48-4.35l-2.5-2.33-.3-.4m-4.3-6.54l-.78-1.44-.72-2.2m-1.6-7.64L9 690v-2m0-8.07v-4.03m0-8.05v-4.03m0-8.06v-4.02m0-8.06v-4.03m0-8.05v-4.03m0-8.06v-4m0-8.07v-4.03m0-8.05v-4.03m0-8.06v-4.02m0-8.06v-4.03m0-8.05v-4.03M9 547v-4m0-8.07v-4.03m0-8.05v-4.03m0-8.06v-4.02m0-8.06v-4.03m0-8.05v-4.03m0-8.06v-4m0-8.07v-4.03m0-8.05v-4.03m0-8.06v-4.02m0-8.06v-4.03m0-8.05v-4.03M9 402v-4m0-8.07v-4.03m0-8.05v-4.03m0-8.06v-4.02m0-8.06v-4.03m0-8.05v-4.03m0-8.06v-4m0-8.07v-4.03m0-8.05v-4.03m0-8.06v-4.02m0-8.06v-4.03m0-8.05v-4.03M9 257v-4m0-8.07v-4.03m0-8.05v-4.03m0-8.06v-4.02m0-8.06v-4.03m0-8.05v-4.03m0-8.06v-4m0-8.07v-4.03m0-8.05v-4.03m0-8.06v-4.02m0-8.06v-4.03m0-8.05v-4.03M9 112v-2l.16-1.95m1.44-7.7l.04-.17 1.52-3.42m4.35-6.48l2.33-2.5.4-.3m6.54-4.3l1.44-.78 2.2-.72m7.64-1.6L39 80h2m8 0h4m8 0h4m8 0h4m8 0h4m8 0h4m8 0h4m8 0h4m8 0h4m8 0h4m8 0h4m8 0h4m8 0h4m8 0h4m8 0h4m8 0h4m8 0h4m8 0h4m8 0h4m8 0h4m8 0h4m8 0h4m8 0h4m8 0h4m8 0h4m8 0h4m8 0h4m8 0h4m8 0h4m8 0h4m8 0h4m8 0h4m8 0h4m8 0h4m8 0h4m8 0h4m8 0h4m8 0h4m8 0h4m8 0h4m8 0h2l1.95.16" stroke="#000" stroke-width="2" fill="none"/><path d="M-20 85c0-2.76 2.24-5 5-5h230c2.76 0 5 2.24 5 5v57.2c0 2.76-2.24 5-5 5H-15c-2.76 0-5-2.24-5-5z" fill="none"/><use xlink:href="#g" transform="matrix(1,0,0,1,-20,80) translate(87.44444444444444 39.333333333333336)"/><path d="M823.7 297c0-2.76 2.24-5 5-5h190c2.76 0 5 2.24 5 5v190c0 2.76-2.24 5-5 5h-190c-2.76 0-5-2.24-5-5z" stroke="#0d1f54" stroke-width="2" fill="none"/><path d="M803.2 367c0-2.76 2.24-5 5-5h230c2.76 0 5 2.24 5 5v50c0 2.76-2.24 5-5 5h-230c-2.76 0-5-2.24-5-5z" fill="none"/><use xlink:href="#c" transform="matrix(1,0,0,1,803.1999999999998,362) translate(79.55 33.6)"/><path d="M863.7 294c0 5.52-4.48 10-10 10s-10-4.48-10-10 4.48-10 10-10 10 4.48 10 10z" stroke="#0d1f54" stroke-width="2"/><path d="M804.2 294c0-2.76 2.24-5 5-5h85c2.76 0 5 2.24 5 5v50c0 2.76-2.24 5-5 5h-85c-2.76 0-5-2.24-5-5z" fill="none"/><use xlink:href="#f" transform="matrix(1,0,0,1,804.1999999999998,289) translate(30.525 33.6)"/><path d="M124 285h80v40h-80z" fill="none"/><path d="M124 305c0-11.05 8.95-20 20-20s20 8.95 20 20m0 0c0 11.05 8.95 20 20 20s20-8.95 20-20" stroke="#000" stroke-width="2" fill="none"/><path d="M124 598h80v40h-80z" fill="none"/><path d="M124 618v-20h40v40h40v-20" stroke="#000" stroke-width="2" fill="none"/><path d="M350 424h55v27.5h-55z" fill="none"/><path d="M350 437.75c0-7.6 6.16-13.75 13.75-13.75 7.6 0 13.75 6.16 13.75 13.75m0 0c0 7.6 6.16 13.75 13.75 13.75 7.6 0 13.75-6.16 13.75-13.75" stroke="#000" stroke-width="2" fill="none"/><path d="M419 428h20v20h-20z" fill="none"/><path d="M429 428v20m-10-10h20" stroke="#000" stroke-width="2"/><path d="M419 428h20v20h-20zM453 423h57v30h-57z" fill="none"/><path d="M453 438v-15h28.5v30H510v-15" stroke="#000" stroke-width="2" fill="none"/><path d="M584 297c0-2.76 2.24-5 5-5h190c2.76 0 5 2.24 5 5v190c0 2.76-2.24 5-5 5H589c-2.76 0-5-2.24-5-5z" stroke="#0d1f54" stroke-width="2" fill="none"/><path d="M564 367c0-2.76 2.24-5 5-5h230c2.76 0 5 2.24 5 5v50c0 2.76-2.24 5-5 5H569c-2.76 0-5-2.24-5-5z" fill="none"/><use xlink:href="#h" transform="matrix(1,0,0,1,564,362) translate(50.64999999999999 33.6)"/><path d="M694 490c0 5.52-4.48 10-10 10s-10-4.48-10-10 4.48-10 10-10 10 4.48 10 10z" stroke="#0d1f54" stroke-width="2"/><path d="M636.5 433c0-2.76 2.24-5 5-5h85c2.76 0 5 2.24 5 5v50c0 2.76-2.24 5-5 5h-85c-2.76 0-5-2.24-5-5z" fill="none"/><use xlink:href="#i" transform="matrix(1,0,0,1,636.5,428) translate(40.5 33.6)"/><path d="M623 294c0 5.52-4.48 10-10 10s-10-4.48-10-10 4.48-10 10-10 10 4.48 10 10z" stroke="#0d1f54" stroke-width="2"/><path d="M580 295.33c0-2.76 2.24-5 5-5h85c2.76 0 5 2.24 5 5v50c0 2.76-2.24 5-5 5h-85c-2.76 0-5-2.24-5-5z" fill="none"/><use xlink:href="#d" transform="matrix(1,0,0,1,580,290.3333333333333) translate(8.024999999999999 33.6)"/><path d="M703.5 294c0-2.76 2.24-5 5-5h85c2.76 0 5 2.24 5 5v50c0 2.76-2.24 5-5 5h-85c-2.76 0-5-2.24-5-5z" fill="none"/><use xlink:href="#e" transform="matrix(1,0,0,1,703.5,289) translate(20 33.6)"/><path d="M761 290c0 5.52-4.48 10-10 10s-10-4.48-10-10 4.48-10 10-10 10 4.48 10 10z" stroke="#0d1f54" stroke-width="2"/><path d="M785 392h19.46M785 392h-3" stroke="#000" stroke-width="2" fill="none"/><path d="M819.46 392l-14.26 4.64v-9.28z" stroke="#000" stroke-width="2"/><path d="M530.5 388h34.26M530.5 388h-3" stroke="#000" stroke-width="2" fill="none"/><path d="M579.76 388l-14.26 4.64v-9.28z" stroke="#000" stroke-width="2"/><defs><path d="M140-251c81 0 123 46 123 126C263-46 219 4 140 4 59 4 17-45 17-125s42-126 123-126zm0 227c63 0 89-41 89-101s-29-99-89-99c-61 0-89 39-89 99S79-25 140-24" id="j"/><path d="M135-143c-3-34-86-38-87 0 15 53 115 12 119 90S17 21 10-45l28-5c4 36 97 45 98 0-10-56-113-15-118-90-4-57 82-63 122-42 12 7 21 19 24 35" id="k"/><path d="M96-169c-40 0-48 33-48 73s9 75 48 75c24 0 41-14 43-38l32 2c-6 37-31 61-74 61-59 0-76-41-82-99-10-93 101-131 147-64 4 7 5 14 7 22l-32 3c-4-21-16-35-41-35" id="l"/><path d="M24-231v-30h32v30H24zM24 0v-190h32V0H24" id="m"/><path d="M24 0v-261h32V0H24" id="n"/><path d="M141-36C126-15 110 5 73 4 37 3 15-17 15-53c-1-64 63-63 125-63 3-35-9-54-41-54-24 1-41 7-42 31l-33-3c5-37 33-52 76-52 45 0 72 20 72 64v82c-1 20 7 32 28 27v20c-31 9-61-2-59-35zM48-53c0 20 12 33 32 33 41-3 63-29 60-74-43 2-92-5-92 41" id="o"/><path d="M59-47c-2 24 18 29 38 22v24C64 9 27 4 27-40v-127H5v-23h24l9-43h21v43h35v23H59v120" id="p"/><path d="M100-194c62-1 85 37 85 99 1 63-27 99-86 99S16-35 15-95c0-66 28-99 85-99zM99-20c44 1 53-31 53-75 0-43-8-75-51-75s-53 32-53 75 10 74 51 75" id="q"/><path d="M114-163C36-179 61-72 57 0H25l-1-190h30c1 12-1 29 2 39 6-27 23-49 58-41v29" id="r"/><path d="M190 0L58-211 59 0H30v-248h39L202-35l-2-213h31V0h-41" id="s"/><path d="M85-194c31 0 48 13 60 33l-1-100h32l1 261h-30c-2-10 0-23-3-31C134-8 116 4 85 4 32 4 16-35 15-94c0-66 23-100 70-100zm9 24c-40 0-46 34-46 75 0 40 6 74 45 74 42 0 51-32 51-76 0-42-9-74-50-73" id="t"/><path d="M100-194c63 0 86 42 84 106H49c0 40 14 67 53 68 26 1 43-12 49-29l28 8c-11 28-37 45-77 45C44 4 14-33 15-96c1-61 26-98 85-98zm52 81c6-60-76-77-97-28-3 7-6 17-6 28h103" id="u"/><g id="a"><use transform="matrix(0.05,0,0,0.05,0,0)" xlink:href="#j"/><use transform="matrix(0.05,0,0,0.05,14,0)" xlink:href="#k"/><use transform="matrix(0.05,0,0,0.05,23,0)" xlink:href="#l"/><use transform="matrix(0.05,0,0,0.05,32,0)" xlink:href="#m"/><use transform="matrix(0.05,0,0,0.05,35.95,0)" xlink:href="#n"/><use transform="matrix(0.05,0,0,0.05,39.900000000000006,0)" xlink:href="#n"/><use transform="matrix(0.05,0,0,0.05,43.85000000000001,0)" xlink:href="#o"/><use transform="matrix(0.05,0,0,0.05,53.85,0)" xlink:href="#p"/><use transform="matrix(0.05,0,0,0.05,58.85,0)" xlink:href="#q"/><use transform="matrix(0.05,0,0,0.05,68.85000000000001,0)" xlink:href="#r"/><use transform="matrix(0.05,0,0,0.05,74.80000000000001,0)" xlink:href="#s"/><use transform="matrix(0.05,0,0,0.05,87.75000000000001,0)" xlink:href="#q"/><use transform="matrix(0.05,0,0,0.05,97.75000000000001,0)" xlink:href="#t"/><use transform="matrix(0.05,0,0,0.05,107.75,0)" xlink:href="#u"/></g><path d="M205 0l-28-72H64L36 0H1l101-248h38L239 0h-34zm-38-99l-47-123c-12 45-31 82-46 123h93" id="v"/><path d="M84 4C-5 8 30-112 23-190h32v120c0 31 7 50 39 49 72-2 45-101 50-169h31l1 190h-30c-1-10 1-25-2-33-11 22-28 36-60 37" id="w"/><path d="M30-248c118-7 216 8 213 122C240-48 200 0 122 0H30v-248zM63-27c89 8 146-16 146-99s-60-101-146-95v194" id="x"/><path d="M117-194c89-4 53 116 60 194h-32v-121c0-31-8-49-39-48C34-167 62-67 57 0H25l-1-190h30c1 10-1 24 2 32 11-22 29-35 61-36" id="y"/><g id="b"><use transform="matrix(0.05,0,0,0.05,0,0)" xlink:href="#v"/><use transform="matrix(0.05,0,0,0.05,12,0)" xlink:href="#w"/><use transform="matrix(0.05,0,0,0.05,22,0)" xlink:href="#t"/><use transform="matrix(0.05,0,0,0.05,32,0)" xlink:href="#m"/><use transform="matrix(0.05,0,0,0.05,35.95,0)" xlink:href="#q"/><use transform="matrix(0.05,0,0,0.05,45.95,0)" xlink:href="#x"/><use transform="matrix(0.05,0,0,0.05,58.900000000000006,0)" xlink:href="#u"/><use transform="matrix(0.05,0,0,0.05,68.9,0)" xlink:href="#k"/><use transform="matrix(0.05,0,0,0.05,77.9,0)" xlink:href="#p"/><use transform="matrix(0.05,0,0,0.05,82.9,0)" xlink:href="#m"/><use transform="matrix(0.05,0,0,0.05,86.85000000000001,0)" xlink:href="#y"/><use transform="matrix(0.05,0,0,0.05,96.85000000000001,0)" xlink:href="#o"/><use transform="matrix(0.05,0,0,0.05,106.85000000000001,0)" xlink:href="#p"/><use transform="matrix(0.05,0,0,0.05,111.85000000000001,0)" xlink:href="#m"/><use transform="matrix(0.05,0,0,0.05,115.80000000000001,0)" xlink:href="#p"/><use transform="matrix(0.05,0,0,0.05,120.80000000000001,0)" xlink:href="#q"/><use transform="matrix(0.05,0,0,0.05,130.8,0)" xlink:href="#y"/><use transform="matrix(0.05,0,0,0.05,140.8,0)" xlink:href="#s"/><use transform="matrix(0.05,0,0,0.05,153.75,0)" xlink:href="#q"/><use transform="matrix(0.05,0,0,0.05,163.75,0)" xlink:href="#t"/><use transform="matrix(0.05,0,0,0.05,173.75,0)" xlink:href="#u"/></g><path d="M143 4C61 4 22-44 18-125c-5-107 100-154 193-111 17 8 29 25 37 43l-32 9c-13-25-37-40-76-40-61 0-88 39-88 99 0 61 29 100 91 101 35 0 62-11 79-27v-45h-74v-28h105v86C228-13 192 4 143 4" id="z"/><g id="c"><use transform="matrix(0.05,0,0,0.05,0,0)" xlink:href="#z"/><use transform="matrix(0.05,0,0,0.05,14,0)" xlink:href="#o"/><use transform="matrix(0.05,0,0,0.05,24,0)" xlink:href="#m"/><use transform="matrix(0.05,0,0,0.05,27.950000000000003,0)" xlink:href="#y"/><use transform="matrix(0.05,0,0,0.05,37.95,0)" xlink:href="#s"/><use transform="matrix(0.05,0,0,0.05,50.900000000000006,0)" xlink:href="#q"/><use transform="matrix(0.05,0,0,0.05,60.900000000000006,0)" xlink:href="#t"/><use transform="matrix(0.05,0,0,0.05,70.9,0)" xlink:href="#u"/></g><path d="M101-234c-31-9-42 10-38 44h38v23H63V0H32v-167H5v-23h27c-7-52 17-82 69-68v24" id="A"/><path d="M145-31C134-9 116 4 85 4 32 4 16-35 15-94c0-59 17-99 70-100 32-1 48 14 60 33 0-11-1-24 2-32h30l-1 268h-32zM93-21c41 0 51-33 51-76s-8-73-50-73c-40 0-46 35-46 75s5 74 45 74" id="B"/><path d="M179-190L93 31C79 59 56 82 12 73V49c39 6 53-20 64-50L1-190h34L92-34l54-156h33" id="C"/><g id="d"><use transform="matrix(0.05,0,0,0.05,0,0)" xlink:href="#A"/><use transform="matrix(0.05,0,0,0.05,5,0)" xlink:href="#r"/><use transform="matrix(0.05,0,0,0.05,10.95,0)" xlink:href="#u"/><use transform="matrix(0.05,0,0,0.05,20.95,0)" xlink:href="#B"/><use transform="matrix(0.05,0,0,0.05,30.950000000000003,0)" xlink:href="#w"/><use transform="matrix(0.05,0,0,0.05,40.95,0)" xlink:href="#u"/><use transform="matrix(0.05,0,0,0.05,50.95,0)" xlink:href="#y"/><use transform="matrix(0.05,0,0,0.05,60.95,0)" xlink:href="#l"/><use transform="matrix(0.05,0,0,0.05,69.95,0)" xlink:href="#C"/></g><g id="e"><use transform="matrix(0.05,0,0,0.05,0,0)" xlink:href="#t"/><use transform="matrix(0.05,0,0,0.05,10,0)" xlink:href="#u"/><use transform="matrix(0.05,0,0,0.05,20,0)" xlink:href="#p"/><use transform="matrix(0.05,0,0,0.05,25,0)" xlink:href="#w"/><use transform="matrix(0.05,0,0,0.05,35,0)" xlink:href="#y"/><use transform="matrix(0.05,0,0,0.05,45,0)" xlink:href="#u"/></g><path d="M177-190C167-65 218 103 67 71c-23-6-38-20-44-43l32-5c15 47 100 32 89-28v-30C133-14 115 1 83 1 29 1 15-40 15-95c0-56 16-97 71-98 29-1 48 16 59 35 1-10 0-23 2-32h30zM94-22c36 0 50-32 50-73 0-42-14-75-50-75-39 0-46 34-46 75s6 73 46 73" id="D"/><g id="f"><use transform="matrix(0.05,0,0,0.05,0,0)" xlink:href="#D"/><use transform="matrix(0.05,0,0,0.05,10,0)" xlink:href="#o"/><use transform="matrix(0.05,0,0,0.05,20,0)" xlink:href="#m"/><use transform="matrix(0.05,0,0,0.05,23.95,0)" xlink:href="#y"/></g><path d="M137 0h-34L2-248h35l83 218 83-218h36" id="E"/><g id="g"><use transform="matrix(0.07407407407407408,0,0,0.07407407407407408,0,0)" xlink:href="#E"/><use transform="matrix(0.07407407407407408,0,0,0.07407407407407408,16.296296296296298,0)" xlink:href="#q"/><use transform="matrix(0.07407407407407408,0,0,0.07407407407407408,31.111111111111114,0)" xlink:href="#m"/><use transform="matrix(0.07407407407407408,0,0,0.07407407407407408,36.96296296296297,0)" xlink:href="#l"/><use transform="matrix(0.07407407407407408,0,0,0.07407407407407408,50.296296296296305,0)" xlink:href="#u"/></g><path d="M160-131c35 5 61 23 61 61C221 17 115-2 30 0v-248c76 3 177-17 177 60 0 33-19 50-47 57zm-97-11c50-1 110 9 110-42 0-47-63-36-110-37v79zm0 115c55-2 124 14 124-45 0-56-70-42-124-44v89" id="F"/><path d="M63-220v92h138v28H63V0H30v-248h175v28H63" id="G"/><g id="h"><use transform="matrix(0.05,0,0,0.05,0,0)" xlink:href="#F"/><use transform="matrix(0.05,0,0,0.05,12,0)" xlink:href="#m"/><use transform="matrix(0.05,0,0,0.05,15.949999999999998,0)" xlink:href="#B"/><use transform="matrix(0.05,0,0,0.05,25.950000000000003,0)" xlink:href="#w"/><use transform="matrix(0.05,0,0,0.05,35.95,0)" xlink:href="#o"/><use transform="matrix(0.05,0,0,0.05,45.95,0)" xlink:href="#t"/><use transform="matrix(0.05,0,0,0.05,55.95,0)" xlink:href="#G"/><use transform="matrix(0.05,0,0,0.05,66.9,0)" xlink:href="#m"/><use transform="matrix(0.05,0,0,0.05,70.85000000000001,0)" xlink:href="#n"/><use transform="matrix(0.05,0,0,0.05,74.80000000000001,0)" xlink:href="#p"/><use transform="matrix(0.05,0,0,0.05,79.80000000000001,0)" xlink:href="#u"/><use transform="matrix(0.05,0,0,0.05,89.80000000000001,0)" xlink:href="#r"/><use transform="matrix(0.05,0,0,0.05,95.75000000000001,0)" xlink:href="#s"/><use transform="matrix(0.05,0,0,0.05,108.7,0)" xlink:href="#q"/><use transform="matrix(0.05,0,0,0.05,118.7,0)" xlink:href="#t"/><use transform="matrix(0.05,0,0,0.05,128.70000000000002,0)" xlink:href="#u"/></g><path d="M140-251c81 0 123 46 123 126C263-53 228-8 163 1c7 30 30 48 69 40v23c-55 16-95-15-103-61C56-3 17-48 17-125c0-80 42-126 123-126zm0 227c63 0 89-41 89-101s-29-99-89-99c-61 0-89 39-89 99S79-25 140-24" id="H"/><use transform="matrix(0.05,0,0,0.05,0,0)" xlink:href="#H" id="i"/></defs></g></svg>